<svg xmlns="http://www.w3.org/2000/svg" viewBox="0 0 16 16"><path d="m12.643 7.69-3.714 3.714c-1.447 1.448-3.586 1.606-4.762.43-1.18-1.18-1.023-3.312.425-4.76l3.41-3.41c.934-.933 2.296-1.033 3.031-.297.735.734.633 2.1-.297 3.03L7.324 9.81c-.422.421-1.002.464-1.3.166-.297-.297-.255-.879.175-1.308L9.29 5.576a.707.707 0 0 0-1-1L5.2 7.668c-.952.951-1.06 2.423-.175 3.308.886.886 2.356.777 3.3-.166l3.412-3.413c1.452-1.451 1.62-3.707.297-5.03s-3.575-1.158-5.03.298l-3.41 3.41c-1.97 1.97-2.193 4.991-.426 6.758 1.764 1.765 4.793 1.54 6.762-.429l3.714-3.714a.707.707 0 0 0-1-1"></path></svg>
