<svg xmlns="http://www.w3.org/2000/svg" viewBox="0 0 16 16"><path d="M1 6.095C1 4.385 2.455 3 4.25 3S7.5 4.386 7.5 6.095v.054c0 1.15 0 2.31-.343 3.422-.36 1.165-1.08 2.238-2.438 3.273a.776.776 0 0 1-1.055-.112.69.69 0 0 1 .118-1.004c1.142-.87 1.671-1.703 1.936-2.56a5 5 0 0 0 .096-.359 3.36 3.36 0 0 1-1.564.381C2.455 9.19 1 7.805 1 6.095m7.5 0C8.5 4.385 9.955 3 11.75 3S15 4.386 15 6.095v.054c0 1.15 0 2.31-.343 3.422-.36 1.165-1.08 2.238-2.438 3.273a.776.776 0 0 1-1.055-.112.69.69 0 0 1 .117-1.004c1.143-.87 1.672-1.703 1.937-2.56a5 5 0 0 0 .096-.359 3.36 3.36 0 0 1-1.564.381c-1.795 0-3.25-1.385-3.25-3.095"></path></svg>
