<svg xmlns="http://www.w3.org/2000/svg" viewBox="0 0 16 16"><path d="M4.75 6a.75.75 0 0 0-.75.75v2a.75.75 0 0 0 1.5 0v-2A.75.75 0 0 0 4.75 6M7 4.75a.75.75 0 0 1 1.5 0v4a.75.75 0 0 1-1.5 0zm4.25.25a.75.75 0 0 0-.75.75v3a.75.75 0 0 0 1.5 0v-3a.75.75 0 0 0-.75-.75"></path><path fill-rule="evenodd" d="M1.272 2.365C1 2.9 1 3.6 1 5v3.5c0 1.4 0 2.1.272 2.635a2.5 2.5 0 0 0 1.093 1.092C2.9 12.5 3.6 12.5 5 12.5h6c1.4 0 2.1 0 2.635-.273a2.5 2.5 0 0 0 1.092-1.092C15 10.6 15 9.9 15 8.5V5c0-1.4 0-2.1-.273-2.635a2.5 2.5 0 0 0-1.092-1.093C13.1 1 12.4 1 11 1H5c-1.4 0-2.1 0-2.635.272a2.5 2.5 0 0 0-1.093 1.093M11 2.5H5c-.725 0-1.178.001-1.52.03-.324.026-.413.068-.434.079a1 1 0 0 0-.437.437c-.01.02-.053.11-.08.434-.028.342-.029.795-.029 1.52v3.5c0 .725.001 1.178.03 1.52.026.324.068.413.079.434a1 1 0 0 0 .437.437c.02.01.11.053.434.08.342.028.795.029 1.52.029h6c.725 0 1.178-.001 1.52-.03.324-.026.413-.069.434-.079a1 1 0 0 0 .437-.437c.01-.02.053-.11.08-.434.028-.342.029-.795.029-1.52V5c0-.725-.001-1.178-.03-1.52-.026-.324-.069-.413-.079-.434a1 1 0 0 0-.437-.437c-.02-.01-.11-.053-.434-.08-.342-.028-.795-.029-1.52-.029" clip-rule="evenodd"></path><path d="M4 14.25a.75.75 0 0 1 .75-.75h6.5a.75.75 0 0 1 0 1.5h-6.5a.75.75 0 0 1-.75-.75"></path></svg>
