<svg xmlns="http://www.w3.org/2000/svg" viewBox="0 0 16 16"><path d="M11.007 1.009c1.017.083 1.89.78 2.187 1.771l1.697 5.649c.112.375.135.772.066 1.158l-.45 2.527-.07.308a3.5 3.5 0 0 1-3.059 2.564l-.316.014H4.93l-.315-.014a3.5 3.5 0 0 1-3.06-2.564l-.069-.308-.45-2.527a2.5 2.5 0 0 1 .029-1.017l.038-.141L2.797 2.78a2.5 2.5 0 0 1 2.188-1.77L5.19 1h5.612zM2.96 11.852A2 2 0 0 0 4.929 13.5h6.134a2 2 0 0 0 1.968-1.648l.24-1.352h-1.65c-.396 0-.77.174-1.025.47l-.103.133A2.01 2.01 0 0 1 8.82 12H7.172a2.01 2.01 0 0 1-1.6-.794l-.074-.102a1.36 1.36 0 0 0-1.127-.604H2.72zM5.191 2.5a1 1 0 0 0-.899.56l-.06.152L2.537 8.86a1 1 0 0 0-.03.14H4.37c.954 0 1.846.477 2.375 1.271l.038.051a.51.51 0 0 0 .388.178h1.647a.51.51 0 0 0 .427-.229l.104-.145A2.85 2.85 0 0 1 11.62 9h1.864a1 1 0 0 0-.03-.14L11.76 3.212a1 1 0 0 0-.957-.712z"></path></svg>
