<svg xmlns="http://www.w3.org/2000/svg" viewBox="0 0 16 16"><path d="M11.975 13.943a7 7 0 0 1-4.646.992 7.2 7.2 0 0 1-4.25-2.216 7.87 7.87 0 0 1-1.916-3.58c-.115-.483.274-.919.771-.919.41 0 .752.3.86.696a6.1 6.1 0 0 0 1.44 2.588 5.6 5.6 0 0 0 3.306 1.724 5.45 5.45 0 0 0 3.613-.772q.28-.173.54-.378l-1.249-1.326a.583.583 0 0 1 .425-.983h3.547c.323 0 .584.261.584.583v3.673a.584.584 0 0 1-.993.415l-1.153-1.135a7 7 0 0 1-.88.638M4.027 2.091a6.84 6.84 0 0 1 4.647-1.024c1.61.229 3.106 1.033 4.252 2.288a8.2 8.2 0 0 1 1.924 3.728c.11.483-.279.917-.775.917-.411 0-.755-.303-.858-.7a6.4 6.4 0 0 0-1.446-2.69c-.892-.977-2.055-1.603-3.307-1.78a5.32 5.32 0 0 0-3.615.796q-.282.18-.54.39l1.249 1.37c.35.384.086 1.015-.426 1.015H1.584A.593.593 0 0 1 1 5.798V2.007c0-.535.625-.804.994-.43L3.147 2.75q.415-.363.88-.659"></path></svg>
