<svg xmlns="http://www.w3.org/2000/svg" viewBox="0 0 16 16"><path d="M7 12.7c0-.11.09-.2.2-.2h1.6c.11 0 .2.09.2.2v1.8c0 .552-.448.5-1 .5s-1 .052-1-.5zM7 1.5c0-.507.378-.505.868-.5h.264C8.622.994 9 .992 9 1.5v.8a.2.2 0 0 1-.2.2H7.2a.2.2 0 0 1-.2-.2zm6 9.86c0 .224 0 .336-.044.422a.4.4 0 0 1-.174.174c-.086.044-.198.044-.422.044H3.247c-.091 0-.137 0-.18-.01a.4.4 0 0 1-.11-.042c-.039-.022-.072-.053-.14-.114l-1.496-1.36c-.18-.165-.271-.247-.304-.343a.4.4 0 0 1 0-.262c.033-.096.123-.178.304-.343l1.496-1.36a1 1 0 0 1 .14-.114.4.4 0 0 1 .11-.042C3.11 8 3.156 8 3.247 8h9.113c.224 0 .336 0 .422.044a.4.4 0 0 1 .174.174c.044.086.044.198.044.422zM3.044 3.218C3 3.304 3 3.416 3 3.64v2.72c0 .224 0 .336.044.422a.4.4 0 0 0 .174.174C3.304 7 3.416 7 3.64 7h9.113c.091 0 .137 0 .18-.01a.4.4 0 0 0 .11-.042 1 1 0 0 0 .14-.114l1.496-1.36c.18-.165.271-.247.304-.343a.4.4 0 0 0 0-.262c-.033-.096-.123-.178-.304-.343l-1.496-1.36a1 1 0 0 0-.14-.114.4.4 0 0 0-.11-.042C12.89 3 12.844 3 12.753 3H3.64c-.224 0-.336 0-.422.044a.4.4 0 0 0-.174.174"></path></svg>
