<svg xmlns="http://www.w3.org/2000/svg" viewBox="0 0 16 16"><path d="M9.803 3.867a2 2 0 0 0 .07-1.569 2 2 0 0 0-3.746 0l-.006.014a2 2 0 0 0 .08 1.562 2 2 0 0 0 3.598 0zm.443.233A4.5 4.5 0 0 1 11.9 5.754a2.5 2.5 0 0 1 1.576-.209 6.02 6.02 0 0 0-3.021-3.022 2.5 2.5 0 0 1-.21 1.577M13 10a1.995 1.995 0 0 0 2-2 2 2 0 1 0-2 2m-1.1.246a2.5 2.5 0 0 0 1.576.209 6.02 6.02 0 0 1-3.021 3.021 2.5 2.5 0 0 0-.21-1.576 4.5 4.5 0 0 0 1.655-1.654m-5.7 1.88a2 2 0 1 1 3.598 1.748 2 2 0 0 1-3.597-1.748m-.447-.226A4.5 4.5 0 0 1 4.1 10.246a2.5 2.5 0 0 1-1.577.209 6.02 6.02 0 0 0 3.022 3.021 2.5 2.5 0 0 1 .21-1.576M1 8a2 2 0 1 1 4.002 0A2 2 0 0 1 1 8m3.1-2.246a2.5 2.5 0 0 0-1.577-.209 6.02 6.02 0 0 1 3.022-3.022 2.5 2.5 0 0 0 .21 1.577A4.5 4.5 0 0 0 4.1 5.754"></path></svg>
