<svg xmlns="http://www.w3.org/2000/svg" viewBox="0 0 16 16"><path d="m14.767 6.54-.02-.051-1.905-5.163a.496.496 0 0 0-.948.054l-1.287 4.086h-5.21L4.11 1.38a.5.5 0 0 0-.752-.3.5.5 0 0 0-.196.246l-1.91 5.16-.018.053a3.8 3.8 0 0 0-.097 2.326 3.68 3.68 0 0 0 1.27 1.92l.007.005.017.013 2.903 2.257 1.436 1.128.875.686a.575.575 0 0 0 .712 0l.874-.686 1.436-1.128 2.92-2.27.008-.007a3.7 3.7 0 0 0 1.267-1.918 3.8 3.8 0 0 0-.095-2.323Z"></path><path d="m14.767 6.54-.02-.051a6.3 6.3 0 0 0-2.562 1.195L8 10.97c1.425 1.12 2.666 2.092 2.666 2.092l2.92-2.27.008-.007a3.68 3.68 0 0 0 1.269-1.919 3.8 3.8 0 0 0-.096-2.325Z"></path><path d="M5.334 13.062 6.77 14.19l.875.686a.575.575 0 0 0 .712 0l.874-.686 1.436-1.128S9.425 12.086 8 10.97zm-1.52-5.378c-.758-.59-1.633-1-2.561-1.198l-.02.052a3.8 3.8 0 0 0-.096 2.326 3.68 3.68 0 0 0 1.27 1.92l.007.005.017.013 2.903 2.257L8 10.967z"></path></svg>
