<svg xmlns="http://www.w3.org/2000/svg" viewBox="0 0 16 16"><path d="M13.133 8.697a.467.467 0 0 1-.933 0V4.5a.466.466 0 0 1 .933 0zm-.162 2.921c-.073.062-1.801 1.513-4.971 1.513s-4.898-1.451-4.97-1.513a.466.466 0 0 1 .606-.71c.027.024 1.571 1.29 4.364 1.29 2.828 0 4.348-1.276 4.363-1.289a.467.467 0 0 1 .607.71M2.867 4.5a.467.467 0 0 1 .933 0v4.197a.467.467 0 0 1-.933 0zM5.2 3.567a.467.467 0 0 1 .933 0V9.8a.467.467 0 0 1-.933 0zm2.333-.236a.467.467 0 1 1 .934 0v6.766a.467.467 0 0 1-.934 0zm2.334.236a.467.467 0 0 1 .933 0V9.8a.467.467 0 0 1-.933 0zM13.25 1H2.75A1.75 1.75 0 0 0 1 2.75v10.5c0 .966.784 1.75 1.75 1.75h10.5A1.75 1.75 0 0 0 15 13.25V2.75A1.75 1.75 0 0 0 13.25 1"></path></svg>
