<svg xmlns="http://www.w3.org/2000/svg" viewBox="0 0 16 16"><path fill-rule="evenodd" d="M1 6.5A1.5 1.5 0 0 0 2.5 8h11A1.5 1.5 0 0 0 15 6.5v-4A1.5 1.5 0 0 0 13.5 1h-11A1.5 1.5 0 0 0 1 2.5zm2.56-4a.2.2 0 0 1 .172.097l2.16 3.6a.2.2 0 0 1-.171.303H4.438a.2.2 0 0 1-.171-.097L2.528 3.506a.2.2 0 0 1-.028-.103V2.7c0-.11.09-.2.2-.2zm6.16 4a.2.2 0 0 0 .172-.303l-2.16-3.6a.2.2 0 0 0-.171-.097H6.278a.2.2 0 0 0-.171.303l2.16 3.6a.2.2 0 0 0 .171.097zm3.78-.901a.2.2 0 0 0-.028-.103l-1.74-2.899a.2.2 0 0 0-.171-.097h-1.283a.2.2 0 0 0-.171.303l2.16 3.6a.2.2 0 0 0 .171.097h.862a.2.2 0 0 0 .2-.2z" clip-rule="evenodd"></path><path d="M4.5 9.5A.5.5 0 0 0 4 9h-.5a.5.5 0 0 0-.5.5V13c0 .276-.237.49-.48.622A1 1 0 0 0 2 14.5a.5.5 0 0 0 .5.5H5a.5.5 0 0 0 .5-.5 1 1 0 0 0-.52-.878c-.243-.132-.48-.346-.48-.622zm8.5 0a.5.5 0 0 0-.5-.5H12a.5.5 0 0 0-.5.5V13c0 .276-.237.49-.48.622a1 1 0 0 0-.52.878.5.5 0 0 0 .5.5h2.5a.5.5 0 0 0 .5-.5 1 1 0 0 0-.52-.878c-.243-.132-.48-.346-.48-.622z"></path></svg>
