<svg xmlns="http://www.w3.org/2000/svg" viewBox="0 0 16 16"><path fill-rule="evenodd" d="M11 1.5a.5.5 0 0 0-.5-.5h-5a.5.5 0 0 0-.5.5V3H2.5a.5.5 0 0 0-.5.5v.293a.5.5 0 0 0 .146.353L5 7v2H2.5a.5.5 0 0 0-.5.5v.293a.5.5 0 0 0 .146.353L5 13v1.5a.5.5 0 0 0 .5.5h5a.5.5 0 0 0 .5-.5V13l2.854-2.854A.5.5 0 0 0 14 9.793V9.5a.5.5 0 0 0-.5-.5H11V7l2.854-2.854A.5.5 0 0 0 14 3.793V3.5a.5.5 0 0 0-.5-.5H11zM9.5 5a1.5 1.5 0 1 1-3 0 1.5 1.5 0 0 1 3 0M8 12.5a1.5 1.5 0 1 0 0-3 1.5 1.5 0 0 0 0 3" clip-rule="evenodd"></path></svg>
