<svg xmlns="http://www.w3.org/2000/svg" viewBox="0 0 16 16"><path d="M8 11.5a2.5 2.5 0 1 0 0-5 2.5 2.5 0 0 0 0 5"></path><path fill-rule="evenodd" d="M8.8 2a1 1 0 0 1 .882.53l.502.94a1 1 0 0 0 .883.53H13.5A1.5 1.5 0 0 1 15 5.5v7a1.5 1.5 0 0 1-1.5 1.5h-11A1.5 1.5 0 0 1 1 12.5v-7A1.5 1.5 0 0 1 2.5 4h2.433a1 1 0 0 0 .883-.53l.502-.94A1 1 0 0 1 7.2 2zM8 13a4 4 0 1 0 0-8 4 4 0 0 0 0 8m4.5-7.5A.5.5 0 0 1 13 5h.5a.5.5 0 0 1 .5.5V6a.5.5 0 0 1-.5.5H13a.5.5 0 0 1-.5-.5z" clip-rule="evenodd"></path></svg>
