<svg xmlns="http://www.w3.org/2000/svg" viewBox="0 0 16 16"><path fill-rule="evenodd" d="M4.121 2h7.758c.395 0 .736 0 1.017.023.297.024.592.078.875.222.424.216.768.56.984.984.144.283.198.578.222.875.023.28.023.622.023 1.017v5.758c0 .395 0 .736-.023 1.017a2.3 2.3 0 0 1-.222.875 2.25 2.25 0 0 1-.984.984 2.3 2.3 0 0 1-.875.222c-.28.023-.622.023-1.017.023H4.12c-.395 0-.736 0-1.017-.023a2.3 2.3 0 0 1-.875-.222 2.25 2.25 0 0 1-.984-.984 2.3 2.3 0 0 1-.222-.875C1 11.616 1 11.274 1 10.88V5.12c0-.395 0-.736.023-1.017a2.3 2.3 0 0 1 .222-.875 2.25 2.25 0 0 1 .984-.984 2.3 2.3 0 0 1 .875-.222C3.384 2 3.726 2 4.12 2M2.5 10.85V7h11v3.85c0 .432 0 .712-.018.924-.017.204-.045.28-.064.317a.75.75 0 0 1-.327.327c-.038.02-.113.047-.317.064-.212.017-.492.018-.924.018h-7.7c-.432 0-.712 0-.924-.018-.204-.017-.28-.045-.316-.064a.75.75 0 0 1-.328-.327c-.02-.038-.047-.113-.064-.317a13 13 0 0 1-.018-.924M3.25 5a.75.75 0 1 0 0-1.5.75.75 0 0 0 0 1.5m3.25-.75a.75.75 0 1 1-1.5 0 .75.75 0 0 1 1.5 0M8.25 5a.75.75 0 1 0 0-1.5.75.75 0 0 0 0 1.5" clip-rule="evenodd"></path></svg>
