<svg xmlns="http://www.w3.org/2000/svg" viewBox="0 0 16 16"><path d="M5.75 1a.75.75 0 0 0-.75.75V5H3.5a.5.5 0 0 0-.5.5V6a.5.5 0 0 0 .5.5H4V9a2 2 0 0 0 2 2h4a2 2 0 0 0 2-2V6.5h.5A.5.5 0 0 0 13 6v-.5a.5.5 0 0 0-.5-.5H11V1.75a.75.75 0 0 0-1.5 0V5h-3V1.75A.75.75 0 0 0 5.75 1m7.482 12.44c.167-.417.57-.69 1.018-.69a.75.75 0 0 0 0-1.5 2.6 2.6 0 0 0-2.41 1.632l-.036.09c-.188.47-.644.778-1.15.778h-.269a1.635 1.635 0 0 1-1.635-1.635V12h-1.5v.115a3.135 3.135 0 0 0 3.135 3.135h.269c1.12 0 2.127-.682 2.542-1.722z"></path></svg>
