<svg xmlns="http://www.w3.org/2000/svg" viewBox="0 0 16 16"><path d="M9 4.732A2 2 0 1 0 7.002 1.27 2 2 0 0 0 9 4.732m-2 .56v3.833c0 .296 2 .296 2 0V5.292A2.5 2.5 0 0 1 8 5.5c-.356 0-.694-.074-1-.208"></path><path fill-rule="evenodd" d="M6 7 2.553 8.724A1 1 0 0 0 2 9.618v1.764a1 1 0 0 0 .553.894l5 2.5a1 1 0 0 0 .894 0l5-2.5a1 1 0 0 0 .553-.894V9.618a1 1 0 0 0-.553-.894L10 7v2.125c0 .658-.538.94-.633.989a2 2 0 0 1-.486.159 5 5 0 0 1-.881.074c-.288 0-.608-.02-.881-.074a2 2 0 0 1-.486-.16C6.538 10.067 6 9.784 6 9.126zm7 3.853a.4.4 0 0 1-.221.358l-4.49 2.244A.2.2 0 0 1 8 13.276v-.529a.4.4 0 0 1 .221-.357l4.49-2.245a.2.2 0 0 1 .289.179z" clip-rule="evenodd"></path></svg>
