<svg xmlns="http://www.w3.org/2000/svg" viewBox="0 0 16 16"><path fill-rule="evenodd" d="M5.927 5.078A41 41 0 0 1 7.102 1H5.8c-1.68 0-2.52 0-3.162.327a3 3 0 0 0-1.311 1.311C1 3.28 1 4.12 1 5.8v4.4c0 1.68 0 2.52.327 3.162a3 3 0 0 0 1.311 1.311C3.28 15 4.12 15 5.8 15h2.433c-.175-.5-.304-1.014-.397-1.523-.983-.092-1.97-.46-3.378-1.026-.367-.147-.551-.58-.411-.968.14-.387.55-.581.917-.434 1.246.502 2.024.783 2.692.895-.04-.694-.025-1.335.016-1.862H6.458a.75.75 0 0 1-.664-.402c-.295-.565-.324-1.34-.274-2.067.052-.769.207-1.65.407-2.535M2.5 4.75a.75.75 0 0 1 1.5 0v1.5a.75.75 0 0 1-1.5 0z" clip-rule="evenodd"></path><path fill-rule="evenodd" d="M9.35 13.405c.863-.15 1.84-.478 3.164-.943.372-.131.573-.556.45-.949-.125-.393-.527-.605-.9-.474-1.34.471-2.208.753-2.906.88-.065-1.024.006-1.933.097-2.46a.75.75 0 0 0-.74-.877H7.023a5 5 0 0 1-.007-.867c.045-.66.182-1.458.374-2.306.357-1.579.89-3.26 1.301-4.409H10.2c1.68 0 2.52 0 3.162.327a3 3 0 0 1 1.311 1.311C15 3.28 15 4.12 15 5.8v4.4c0 1.68 0 2.52-.327 3.162a3 3 0 0 1-1.311 1.311C12.72 15 11.88 15 10.2 15h-.355a7.7 7.7 0 0 1-.495-1.595M12.25 4a.75.75 0 0 0-.75.75v1.5a.75.75 0 0 0 1.5 0v-1.5a.75.75 0 0 0-.75-.75" clip-rule="evenodd"></path></svg>
