<svg xmlns="http://www.w3.org/2000/svg" viewBox="0 0 16 16"><path d="M8.75 7.25h2.29c.187-1.789 1.04-3.268 2.185-3.908A7 7 0 0 0 8.75 1.04zm0 1.5h2.29c.188 1.79 1.04 3.268 2.186 3.908a7 7 0 0 1-4.476 2.303zm4.504 1.925c.288.412.587.639.855.746a7 7 0 0 0 .852-2.67H12.55c.105.783.37 1.447.704 1.924M14.96 7.25a7 7 0 0 0-.851-2.67c-.268.106-.567.333-.855.745-.334.477-.599 1.141-.704 1.925zm-7.71 0V1.04a7 7 0 0 0-4.475 2.302c1.146.64 1.998 2.12 2.186 3.908zm-3.8 0c-.105-.784-.37-1.448-.704-1.925-.288-.412-.586-.638-.854-.745a7 7 0 0 0-.852 2.67zm-1.559 4.17a7 7 0 0 1-.851-2.67h2.41c-.105.784-.37 1.448-.704 1.925-.288.412-.587.638-.855.745m.884 1.238c1.146-.64 1.997-2.119 2.186-3.908H7.25v6.21a6.98 6.98 0 0 1-4.475-2.302"></path></svg>
