<svg xmlns="http://www.w3.org/2000/svg" viewBox="0 0 16 16"><path fill-rule="evenodd" d="M15 5v.5a.5.5 0 0 1-.5.5H14v4h-1V6H6.857l.5 7H4.643l.5-7H3v.5a.5.5 0 0 1-.5.5h-1a.5.5 0 0 1-.5-.5V4l4.573-2.962a.74.74 0 0 1 .712-.051zm-3.345-.418L6.589 2.249 6.714 4H7zM2.79 4h2.496l.117-1.644z" clip-rule="evenodd"></path><path d="M5.03 15H3v-.5a.5.5 0 0 1 .5-.5h5a.5.5 0 0 1 .5.5v.5zm8.887-4h-.834a.2.2 0 0 0-.142.059l-.882.882a.2.2 0 0 0-.059.142v.717c0 .11.09.2.2.2h2.6a.2.2 0 0 0 .2-.2v-.717a.2.2 0 0 0-.059-.142l-.882-.882a.2.2 0 0 0-.142-.059"></path></svg>
