<svg xmlns="http://www.w3.org/2000/svg" viewBox="0 0 16 16"><path d="M2 14a1 1 0 0 1 1-1h10a1 1 0 1 1 0 2H3a1 1 0 0 1-1-1M8.511 3.063c-.036-.096.008-.202.09-.263A.998.998 0 0 0 8 1a1 1 0 0 0-.6 1.8c.081.061.125.167.089.263L6.116 6.694a.3.3 0 0 1-.41.164L3.061 5.59c-.104-.05-.142-.179-.108-.29A1 1 0 1 0 2 6c.11 0 .213.067.235.174L3 10v1.5a.5.5 0 0 0 .5.5h9a.5.5 0 0 0 .5-.5V10l.765-3.826C13.786 6.067 13.891 6 14 6a1 1 0 1 0-.954-.7c.034.11-.003.239-.108.29l-2.643 1.268a.3.3 0 0 1-.41-.164z"></path></svg>
