<svg xmlns="http://www.w3.org/2000/svg" viewBox="0 0 16 16"><path fill-rule="evenodd" d="M7.25 9.05V6h1.5v3.05c0 .11.09.2.2.2h4.85a.2.2 0 0 0 .2-.2V7h1V6a1 1 0 0 0-1-1h-2.5c.314-.418.5-.937.5-1.5v-.125a2.375 2.375 0 0 0-4-1.732 2.375 2.375 0 0 0-4 1.732V3.5c0 .563.186 1.082.5 1.5H2a1 1 0 0 0-1 1v1h1v2.05c0 .11.09.2.2.2h4.85a.2.2 0 0 0 .2-.2M5.5 3.375a.875.875 0 1 1 1.75 0V4.5H6.5a1 1 0 0 1-1-1zM8.75 4.5h.75a1 1 0 0 0 1-1v-.125a.875.875 0 0 0-1.75 0zm5.05 6.25c.11 0 .2.09.2.2V13a2 2 0 0 1-2 2H8.75v-4.05c0-.11.09-.2.2-.2zm-6.55.2V15H4a2 2 0 0 1-2-2v-2.05c0-.11.09-.2.2-.2h4.85c.11 0 .2.09.2.2" clip-rule="evenodd"></path></svg>
