<svg xmlns="http://www.w3.org/2000/svg" viewBox="0 0 16 16"><path d="M7.004 4.312a5.3 5.3 0 0 0-.486.923.193.193 0 0 0 .182.265h1.8A.5.5 0 0 1 9 6v1a.5.5 0 0 1-.5.5H6.203a.196.196 0 0 0-.197.188 8 8 0 0 0 0 .624.196.196 0 0 0 .197.188H8.5A.5.5 0 0 1 9 9v1a.5.5 0 0 1-.5.5H6.7a.193.193 0 0 0-.182.265q.211.512.486.923C7.608 12.595 8.334 13 9 13c.617 0 1.29-.35 1.863-1.121.164-.222.468-.304.706-.164l.862.507c.238.14.319.448.161.675C11.745 14.115 10.502 15 9 15c-1.543 0-2.817-.938-3.66-2.203a7.7 7.7 0 0 1-.976-2.15.2.2 0 0 0-.195-.147H3.5A.5.5 0 0 1 3 10V9a.5.5 0 0 1 .5-.5h.302a.203.203 0 0 0 .202-.21 10 10 0 0 1 0-.58.203.203 0 0 0-.202-.21H3.5A.5.5 0 0 1 3 7V6a.5.5 0 0 1 .5-.5h.67c.09 0 .169-.06.194-.148a7.7 7.7 0 0 1 .976-2.15C6.183 1.939 7.457 1 9 1c1.502 0 2.746.885 3.592 2.103a.47.47 0 0 1-.161.675l-.862.507c-.238.14-.542.058-.707-.164C10.29 3.351 9.618 3 9 3c-.666 0-1.392.405-1.996 1.312"></path></svg>
