<svg xmlns="http://www.w3.org/2000/svg" viewBox="0 0 16 16"><path fill-rule="evenodd" d="M5.5 1A2.5 2.5 0 0 0 3 3.5v.75a.75.75 0 0 0 1.5 0V3.5a1 1 0 0 1 1-1H8v2.75A2.75 2.75 0 0 0 10.75 8h2.75v4.5a1 1 0 0 1-1 1h-1.75a.75.75 0 0 0 0 1.5h1.75a2.5 2.5 0 0 0 2.5-2.5V7.036a2.5 2.5 0 0 0-.732-1.768l-3.536-3.536A2.5 2.5 0 0 0 8.964 1zm7.707 5.328q.078.08.137.172H10.75c-.69 0-1.25-.56-1.25-1.25V2.655a1 1 0 0 1 .172.138z" clip-rule="evenodd"></path><path fill-rule="evenodd" d="m3.771 9.144.272-1.36a.976.976 0 0 1 1.914 0l.272 1.36c.038.189.056.283.103.36a.5.5 0 0 0 .165.164c.076.047.17.065.36.103l1.359.272a.976.976 0 0 1 0 1.914l-1.36.272c-.189.038-.283.056-.36.103a.5.5 0 0 0-.164.165c-.047.076-.065.17-.103.36l-.272 1.359a.976.976 0 0 1-1.914 0l-.272-1.36c-.038-.189-.056-.283-.103-.36a.5.5 0 0 0-.165-.164c-.076-.047-.17-.066-.36-.103l-1.359-.272a.976.976 0 0 1 0-1.914l1.36-.272c.189-.038.283-.056.36-.103a.5.5 0 0 0 .164-.165c.047-.076.065-.17.103-.36" clip-rule="evenodd"></path></svg>
