<svg xmlns="http://www.w3.org/2000/svg" viewBox="0 0 16 16"><path fill-rule="evenodd" d="M4.235 4.235C.597 7.874.66 13.835 1.412 14.588s6.714.815 10.353-2.823 3.576-9.6 2.823-10.353S7.874.597 4.235 4.235m7.119.411a.5.5 0 0 0-.708 0l-.576.577-.793-.793a.5.5 0 0 0-.707 0l-.141.141a.5.5 0 0 0 0 .707l.793.793L8.07 7.223l-.793-.793a.5.5 0 0 0-.707 0l-.141.141a.5.5 0 0 0 0 .707l.793.793L6.07 9.223l-.793-.793a.5.5 0 0 0-.707 0l-.141.141a.5.5 0 0 0 0 .707l.793.793-.576.575a.5.5 0 0 0 .708.708l.575-.576.793.793a.5.5 0 0 0 .707 0l.141-.141a.5.5 0 0 0 0-.707l-.793-.793L7.93 8.778l.793.793a.5.5 0 0 0 .707 0l.141-.141a.5.5 0 0 0 0-.707l-.793-.793L9.93 6.778l.793.793a.5.5 0 0 0 .707 0l.141-.141a.5.5 0 0 0 0-.707l-.793-.793.577-.576a.5.5 0 0 0 0-.708" clip-rule="evenodd"></path></svg>
