<svg xmlns="http://www.w3.org/2000/svg" viewBox="0 0 16 16"><path fill-rule="evenodd" d="M8.75 4.855a2 2 0 1 0-1.5 0V6.05a.2.2 0 0 1-.2.2H6a.75.75 0 0 0 0 1.5h1.05c.11 0 .2.09.2.2v3.97a.19.19 0 0 1-.24.188c-.598-.167-1.17-.47-1.687-.843-.797-.57-1.405-1.258-1.707-1.693a.75.75 0 1 0-1.232.856c.392.565 1.118 1.378 2.064 2.057.729.522 1.627.992 2.633 1.179.097.018.17.102.17.2v.386c0 .31.417.575.63.69a.25.25 0 0 0 .239 0c.212-.115.63-.38.63-.69v-.386c0-.098.072-.182.17-.2 1.005-.187 1.903-.657 2.632-1.18.946-.678 1.672-1.491 2.064-2.056a.75.75 0 0 0-1.232-.856c-.302.435-.91 1.122-1.706 1.694-.519.371-1.09.675-1.688.842a.19.19 0 0 1-.24-.188V7.95c0-.11.09-.2.2-.2H10a.75.75 0 0 0 0-1.5H8.95a.2.2 0 0 1-.2-.2zM9 3c0 .5-.25 1-1 1s-1-.5-1-1 .25-1 1-1 1 .5 1 1" clip-rule="evenodd"></path></svg>
