<svg xmlns="http://www.w3.org/2000/svg" viewBox="0 0 16 16"><path d="M2.866 5.545A.86.86 0 0 0 2 6.41v3.607a.86.86 0 0 0 .866.866.86.86 0 0 0 .866-.866V6.41a.86.86 0 0 0-.866-.866m8.912.148v5.598a.93.93 0 0 1-.832.928l-.102.005h-.62v1.91A.86.86 0 0 1 9.36 15a.86.86 0 0 1-.86-.764l-.006-.102-.001-1.91H7.339v1.91a.86.86 0 0 1-.866.866.86.86 0 0 1-.86-.764l-.006-.102v-1.91h-.62a.93.93 0 0 1-.927-.831l-.006-.102V5.693zm1.188-.148c.448 0 .81.33.86.764l.006.102v3.607a.86.86 0 0 1-.866.866.86.86 0 0 1-.86-.764l-.006-.102V6.41a.86.86 0 0 1 .866-.866M10.314 1q.03 0 .058.016c.05.027.072.078.062.13l-.014.037-.61 1.102c1.114.58 1.886 1.657 1.961 2.905l.007.198H4.054c.002-1.265.717-2.376 1.795-3.007l.173-.096-.61-1.102a.12.12 0 0 1 .048-.167.12.12 0 0 1 .138.012l.029.036.618 1.114a4.1 4.1 0 0 1 1.67-.35 4.1 4.1 0 0 1 1.451.26l.22.09.619-1.114A.12.12 0 0 1 10.313 1m-4.18 2.33a.324.324 0 0 0-.323.322c0 .177.146.323.323.323a.324.324 0 0 0 .322-.323.324.324 0 0 0-.322-.322m3.564 0a.324.324 0 0 0-.322.322c0 .177.146.323.322.323a.324.324 0 0 0 .322-.323.324.324 0 0 0-.322-.322"></path></svg>
