<svg xmlns="http://www.w3.org/2000/svg" viewBox="0 0 16 16"><path d="M7.695 1.104a.5.5 0 0 1 .61 0l6.5 5A.5.5 0 0 1 14.5 7h-13a.5.5 0 0 1-.305-.896zM1 14.539c0-.503 0-.754.088-.95a1 1 0 0 1 .502-.5C1.785 13 2.036 13 2.538 13h.142c.112 0 .168 0 .21-.022a.2.2 0 0 0 .088-.087C3 12.848 3 12.792 3 12.68v-4.2c0-.168 0-.252.033-.316a.3.3 0 0 1 .13-.131C3.229 8 3.313 8 3.48 8h1.04c.168 0 .252 0 .316.033a.3.3 0 0 1 .131.13C5 8.229 5 8.313 5 8.48v4.2c0 .112 0 .168.022.21a.2.2 0 0 0 .087.088c.043.022.099.022.211.022h1.36c.112 0 .168 0 .21-.022a.2.2 0 0 0 .088-.087C7 12.848 7 12.792 7 12.68v-4.2c0-.168 0-.252.033-.316a.3.3 0 0 1 .13-.131C7.229 8 7.313 8 7.48 8h1.04c.168 0 .252 0 .316.033a.3.3 0 0 1 .131.13C9 8.229 9 8.313 9 8.48v4.2c0 .112 0 .168.022.21a.2.2 0 0 0 .087.088c.043.022.099.022.211.022h1.36c.112 0 .168 0 .21-.022a.2.2 0 0 0 .088-.087c.022-.043.022-.099.022-.211v-4.2c0-.168 0-.252.033-.316a.3.3 0 0 1 .13-.131C11.229 8 11.313 8 11.48 8h1.04c.168 0 .252 0 .316.033a.3.3 0 0 1 .131.13c.033.065.033.149.033.317v4.2c0 .112 0 .168.022.21a.2.2 0 0 0 .087.088c.043.022.099.022.211.022h.142c.502 0 .753 0 .948.088a1 1 0 0 1 .502.502c.088.195.088.446.088.949 0 .15 0 .225-.026.284a.3.3 0 0 1-.15.15c-.06.027-.135.027-.285.027H1.462c-.151 0-.226 0-.285-.026a.3.3 0 0 1-.15-.15C1 14.763 1 14.688 1 14.538"></path></svg>
