<svg xmlns="http://www.w3.org/2000/svg" viewBox="0 0 16 16"><path d="M3.613 6.039C3.5 6.256 3.5 6.541 3.5 7.11v1.78c0 .57 0 .854.113 1.071a1 1 0 0 0 .426.426c.217.113.502.113 1.071.113h.39v-5h-.39c-.57 0-.854 0-1.071.113a1 1 0 0 0-.426.426M11.5 8.89c0 .57 0 .854-.113 1.071a1 1 0 0 1-.426.426c-.217.113-.502.113-1.071.113H9.5v-5h.39c.57 0 .854 0 1.071.113a1 1 0 0 1 .426.426c.113.217.113.502.113 1.071zm-3-3.39h-2v5h2z"></path><path fill-rule="evenodd" d="M1.327 4.638C1 5.28 1 6.12 1 7.8v.4c0 1.68 0 2.52.327 3.162a3 3 0 0 0 1.311 1.311C3.28 13 4.12 13 5.8 13h3.4c1.68 0 2.52 0 3.162-.327a3 3 0 0 0 1.311-1.311c.182-.356.262-.774.298-1.362H14a1 1 0 0 0 1-1V7a1 1 0 0 0-1-1h-.029c-.036-.588-.116-1.006-.298-1.362a3 3 0 0 0-1.311-1.311C11.72 3 10.88 3 9.2 3H5.8c-1.68 0-2.52 0-3.162.327a3 3 0 0 0-1.311 1.311M9.2 4.5H5.8c-.865 0-1.423.001-1.848.036-.408.033-.559.09-.633.127a1.5 1.5 0 0 0-.655.656c-.038.074-.095.225-.128.633C2.5 6.377 2.5 6.935 2.5 7.8v.4c0 .865.001 1.423.036 1.848.033.408.09.559.128.633a1.5 1.5 0 0 0 .655.656c.074.037.225.094.633.127.425.035.983.036 1.848.036h3.4c.865 0 1.423-.001 1.848-.036.408-.033.559-.09.633-.128a1.5 1.5 0 0 0 .656-.655c.037-.074.094-.225.127-.633.035-.425.036-.983.036-1.848v-.4c0-.865-.001-1.423-.036-1.848-.033-.408-.09-.559-.128-.633a1.5 1.5 0 0 0-.655-.656c-.074-.037-.225-.094-.633-.127C10.623 4.5 10.065 4.5 9.2 4.5" clip-rule="evenodd"></path></svg>
