<svg xmlns="http://www.w3.org/2000/svg" viewBox="0 0 16 16"><path fill-rule="evenodd" d="M4 11.5a1.5 1.5 0 1 0 0-3 1.5 1.5 0 0 0 0 3M4 13a3 3 0 1 0 0-6 3 3 0 0 0 0 6m8-1.5a1.5 1.5 0 1 0 0-3 1.5 1.5 0 0 0 0 3m0 1.5a3 3 0 1 0 0-6 3 3 0 0 0 0 6" clip-rule="evenodd"></path><path fill-rule="evenodd" d="M5.321 5.43A.75.75 0 0 1 6 5h5a.75.75 0 0 1 .75.75c0 .463.047 1.28.188 2.068.07.393.161.76.272 1.063.116.315.232.5.32.589a.75.75 0 1 1-1.06 1.06c-.312-.312-.521-.732-.668-1.133a8 8 0 0 1-.34-1.315 14 14 0 0 1-.186-1.582h-3.8l-1.797 3.82a.75.75 0 1 1-1.358-.64z" clip-rule="evenodd"></path><path d="M4 3.75A.75.75 0 0 1 4.75 3h.375C6.161 3 7 3.84 7 4.875V5H5.25C4.56 5 4 4.44 4 3.75"></path><path fill-rule="evenodd" d="M8.75 2.75A.75.75 0 0 1 9.5 2h.834a1.75 1.75 0 0 1 1.73 2.016l-.323 2.098a.75.75 0 1 1-1.482-.228l.322-2.098a.25.25 0 0 0-.247-.288H9.5a.75.75 0 0 1-.75-.75" clip-rule="evenodd"></path><path fill-rule="evenodd" d="M11.643 5.614a.75.75 0 0 1-.257 1.03l-5 3a.75.75 0 0 1-.772-1.287l5-3a.75.75 0 0 1 1.03.257" clip-rule="evenodd"></path></svg>
