<svg xmlns="http://www.w3.org/2000/svg" viewBox="0 0 16 16"><path d="M12.223 5.285c-.154-1.526-1.457-2.03-3.1-2.167L9.115 1.5a.5.5 0 0 0-.503-.497l-.272.001a.5.5 0 0 0-.497.503L7.85 3.07c-.334.002-.676.01-1.016.02l-.008-1.576a.5.5 0 0 0-.503-.497l-.271.001a.5.5 0 0 0-.497.503l.008 1.617q-.413.012-.81.016v-.007L3.5 3.153a.5.5 0 0 0-.497.503l.002.367c.002.28.233.503.512.5a4 4 0 0 1 .415.003c.515-.002.684.3.734.561L4.68 7.5a1 1 0 0 1 .134.008l-.134.001.018 3.38c-.022.165-.116.427-.476.43a6 6 0 0 1-.493.008.5.5 0 0 0-.499.423l-.084.533a.5.5 0 0 0 .496.579l1.067-.006c.308-.002.611.002.909.002l.01 1.642a.5.5 0 0 0 .502.497l.27-.001a.5.5 0 0 0 .498-.503l-.01-1.62q.523.008 1.017.005v1.63a.5.5 0 0 0 .5.5h.272a.5.5 0 0 0 .5-.5v-1.666c2.138-.136 3.632-.69 3.806-2.727.141-1.64-.623-2.367-1.839-2.655.736-.385 1.193-1.058 1.079-2.175m-1.755 4.59c.01 1.6-2.696 1.434-3.558 1.44l-.015-2.839c.862-.004 3.564-.27 3.573 1.399m-.614-4c.008 1.456-2.248 1.298-2.966 1.302l-.014-2.574c.718-.004 2.972-.248 2.98 1.271"></path></svg>
