<svg xmlns="http://www.w3.org/2000/svg" viewBox="0 0 16 16"><path fill-rule="evenodd" d="m8.75 11.399 1.078-.899-1.078-.899zm0-5L9.828 5.5 8.75 4.601z" clip-rule="evenodd"></path><path fill-rule="evenodd" d="M8 1C5.239 1 2 3.239 2 6v4c0 2.761 3.239 5 6 5s6-2.239 6-5V6c0-2.761-3.239-5-6-5m.484 12.573a.747.747 0 0 1-1.051-.082A.75.75 0 0 1 7.25 13V9.601l-1.77 1.475a.75.75 0 0 1-.96-1.152L6.828 8 4.52 6.076a.75.75 0 1 1 .96-1.152l1.77 1.475V3a.747.747 0 0 1 .772-.75c.176.005.336.07.462.177l2.996 2.497a.75.75 0 0 1 0 1.152L9.172 8l2.308 1.924a.75.75 0 0 1 0 1.152z" clip-rule="evenodd"></path></svg>
