<svg xmlns="http://www.w3.org/2000/svg" viewBox="0 0 16 16"><path d="M8.612 1.116a1.67 1.67 0 0 0-1.225 0L1.995 3.265l2.116.803 6.026-2.344zm3.783 1.508-5.97 2.321.946.359A1.75 1.75 0 0 1 8.5 6.94v8.026c.293-.04.582-.115.857-.225l4.801-1.929c.514-.206.842-.65.842-1.137V4.503h-.002c.017-.47-.264-.948-.844-1.179z"></path><path d="M3 5.25v2.002a.4.4 0 0 0 .221.358l1.49.745A.2.2 0 0 0 5 8.175V6.01l1.839.698A.25.25 0 0 1 7 6.94v7.923a4 4 0 0 1-.357-.122l-4.801-1.929c-.514-.206-.842-.65-.842-1.137V4.492z"></path></svg>
