<svg xmlns="http://www.w3.org/2000/svg" viewBox="0 0 16 16"><path fill-rule="evenodd" d="M5.048 2.091a1.22 1.22 0 0 1 1.277.22l1.63 1.502 1.223-1.41A1.21 1.21 0 0 1 10.5 2.08l3.778 1.394c.765.282.968 1.194.386 1.731L13.227 6.53l.858.91c.486.515.324 1.313-.33 1.631l-.964.47v2.488a.46.46 0 0 1-.305.428l-3.78 1.416a2 2 0 0 1-1.39 0l-3.782-1.416a.46.46 0 0 1-.304-.428V9.544l-.971-.471c-.656-.319-.818-1.119-.33-1.634l.863-.909-1.456-1.343c-.569-.525-.39-1.414.346-1.715zm.424 1.178L2.48 4.496l1.34 1.236 2.992-1.227zm3.634 1.194L12.2 5.732l1.311-1.21-3.377-1.246zm3.075 2.84L8.926 8.804l.711.876 3.28-1.596zM7.095 8.804 3.838 7.302l-.742.782L6.383 9.68zm.915-1.057-2.622-1.21L8.01 5.462l2.623 1.075z" clip-rule="evenodd"></path></svg>
