<svg xmlns="http://www.w3.org/2000/svg" viewBox="0 0 16 16"><path d="M12.75 2.5c0 .828-.56 2-1.25 2s-1.25-1.172-1.25-2S10.81 1 11.5 1s1.25.672 1.25 1.5M9.291 6.418a2 2 0 0 0-.184 1.224l.356 2.132A.27.27 0 0 0 9.73 10c.15 0 .27.121.27.27v4.33c0 .22.18.4.4.4h.225a.4.4 0 0 0 .399-.375l.21-3.376a.266.266 0 0 1 .532 0l.21 3.376a.4.4 0 0 0 .4.375h.224a.4.4 0 0 0 .4-.4v-4.33c0-.149.122-.27.271-.27a.27.27 0 0 0 .267-.226l.355-2.132a2 2 0 0 0-.184-1.224l-.432-.865A1 1 0 0 0 12.382 5h-1.764a1 1 0 0 0-.894.553z"></path><path fill-rule="evenodd" d="M1.5 13.5a.494.494 0 0 1-.5-.496v-3.92c0-.277.224-.5.5-.507a21 21 0 0 0 2.182-.17l.76-.101c.347-.046.53-.515.336-.862L3.477 5.118c-.086-.152-.24-.228-.391-.193a9 9 0 0 1-1.586.233.48.48 0 0 1-.5-.486V4.5a.5.5 0 0 1 .5-.5h1.214c.54 0 1.048.272 1.372.733l1.2 1.711c.262.375.468.787.612 1.223h.673c.237 0 .429.205.429.458 0 .506-.384.917-.857.917H6.14q.003.075.003.152v2.286c0 .286-.062.557-.172.8v1.987c0 .256 0 .385-.046.483a.44.44 0 0 1-.188.2c-.091.05-.211.05-.451.05h-.343c-.24 0-.36 0-.452-.05a.44.44 0 0 1-.187-.2c-.047-.098-.047-.227-.047-.483v-.932l-.552.049q-1.102.098-2.205.116m3.786-3.799v.629c0 .554-.454 1.003-1.013 1.003H2.917c-.2 0-.279-.257-.112-.367L4.97 9.534a.203.203 0 0 1 .315.167" clip-rule="evenodd"></path></svg>
