<svg xmlns="http://www.w3.org/2000/svg" viewBox="0 0 16 16"><path d="M8 11.572c-.7 0-1.352-.193-1.931-.579a3.64 3.64 0 0 1-1.303-1.472L1.869 4.5C1.266 5.586 1 6.769 1 8c0 1.762.58 3.283 1.714 4.586s2.558 2.076 4.248 2.342l2.028-3.525a3 3 0 0 1-.99.17m-2.197-6.47C6.455 4.597 7.18 4.38 8 4.38h6.01c-.627-1.062-1.472-1.834-2.534-2.438A6.7 6.7 0 0 0 8 1a7 7 0 0 0-3.066.7c-.94.459-1.834 1.134-2.462 2.003L4.5 7.034c.193-.772.652-1.424 1.303-1.93"></path><path d="M14.469 5.369h-4.055c.7.7 1.183 1.617 1.183 2.631 0 .748-.218 1.424-.628 2.052L8.072 15c1.907-.024 3.549-.7 4.9-2.076Q15 10.86 15 8c0-.893-.145-1.834-.531-2.631"></path><path d="M8 5.345c1.448 0 2.655 1.207 2.655 2.655S9.448 10.655 8 10.655 5.345 9.448 5.345 8 6.552 5.345 8 5.345"></path></svg>
