<svg xmlns="http://www.w3.org/2000/svg" viewBox="0 0 16 16"><path fill-rule="evenodd" d="M1 4.2c0-1.12 0-1.68.218-2.108a2 2 0 0 1 .874-.874C2.52 1 3.08 1 4.2 1h7.6c1.12 0 1.68 0 2.108.218a2 2 0 0 1 .874.874C15 2.52 15 3.08 15 4.2v7.6c0 1.12 0 1.68-.218 2.108a2 2 0 0 1-.874.874C13.48 15 12.92 15 11.8 15H4.2c-1.12 0-1.68 0-2.108-.218a2 2 0 0 1-.874-.874C1 13.48 1 12.92 1 11.8zM6 4a1 1 0 1 1-2 0 1 1 0 0 1 2 0M5 9a1 1 0 1 0 0-2 1 1 0 0 0 0 2m1 3a1 1 0 1 1-2 0 1 1 0 0 1 2 0m5-7a1 1 0 1 0 0-2 1 1 0 0 0 0 2m1 3a1 1 0 1 1-2 0 1 1 0 0 1 2 0m-1 5a1 1 0 1 0 0-2 1 1 0 0 0 0 2" clip-rule="evenodd"></path></svg>
