<svg xmlns="http://www.w3.org/2000/svg" viewBox="0 0 16 16"><path d="M11.796 10.148c0 1.508-1.006 2.569-2.27 2.99V14a1 1 0 0 1-1 1h-.338a1 1 0 0 1-1-1v-.808c-.897-.272-1.74-.883-2.392-1.903l1.536-1.427c.516.843 1.169 1.319 1.848 1.319.734 0 1.237-.34 1.237-1.06 0-1.469-4.295-.721-4.295-4.187 0-1.482.91-2.515 2.066-2.95V2a1 1 0 0 1 1-1h.338a1 1 0 0 1 1 1v.93c.83.272 1.604.884 2.216 1.89l-1.536 1.427C9.825 5.404 9.146 4.9 8.534 4.9c-.64 0-1.128.326-1.128 1.02 0 1.44 4.39.829 4.39 4.227"></path></svg>
