<svg xmlns="http://www.w3.org/2000/svg" viewBox="0 0 16 16"><path d="M8.097 1C5.07 1 2.495 2.815 1.438 5.655c.863-.952 2.005-1.46 3.332-1.46h.01c2.06.003 4.236 1.31 4.956 2.974h-.003c.258.505.197 1.026.115 1.355-.096.374-.239.55-.293.62l-.03.038a.323.323 0 0 0 .036.438q.033.03.105.077l.083.05c.404.256 1.318.518 2.145.518.634 0 1.461-.099 2.238-.882 1.305-1.31.802-3.137.617-3.667-.315-.898-1.623-3.882-5.293-4.585A7 7 0 0 0 8.097 1M4.77 4.834c-1.655 0-2.982.93-3.746 2.623-.252 2.927 1.515 5.552 3.616 6.728.302.17 1.263.655 2.603.815-1.184-.562-2.084-1.543-2.498-2.818-.688-2.118.175-4.38 2.196-5.76l.003.003a1.94 1.94 0 0 1 1.06-.316q.066-.002.13.006c-.894-.767-2.16-1.278-3.354-1.281zm1.321 3.249c-.885 1.14-1.174 2.556-.738 3.901.576 1.777 2.26 2.901 4.313 2.907 1.598-.357 2.989-1.294 4.154-2.805l.028-.038a.33.33 0 0 0-.015-.387.32.32 0 0 0-.376-.09l-.153.071c-.063.029-.12.048-.19.073a5 5 0 0 0-.265.103c-.41.169-1.021.265-1.677.265-.55 0-1.089-.07-1.512-.198-.598-.179-2.423-.732-3.375-2.84a2.3 2.3 0 0 1-.194-.962"></path></svg>
