<svg xmlns="http://www.w3.org/2000/svg" viewBox="0 0 16 16"><path fill-rule="evenodd" d="M8 15A7 7 0 1 0 8 1a7 7 0 0 0 0 14m-.846-5C6.517 10 6 10.517 6 11.154 6 12.174 6.827 13 7.846 13h.308C9.174 13 10 12.174 10 11.154 10 10.517 9.483 10 8.846 10zm.324-4.015a.35.35 0 0 0-.332-.23H5.71a.12.12 0 0 1-.111-.078l-.516-1.449a.35.35 0 0 0-.413-.219.36.36 0 0 0-.25.22l-.001.003-.515 1.445a.12.12 0 0 1-.111.079H2.354a.36.36 0 0 0-.333.23.35.35 0 0 0 .106.39l1.224 1.006a.12.12 0 0 1 .036.127l-.514 1.529a.35.35 0 0 0 .337.462.36.36 0 0 0 .209-.068l1.261-.917a.12.12 0 0 1 .14 0l1.262.917a.356.356 0 0 0 .563-.29.4.4 0 0 0-.018-.104l-.514-1.53a.12.12 0 0 1 .037-.127l1.226-1.007a.35.35 0 0 0 .102-.39m6.37-.166a.35.35 0 0 1 .14.376.35.35 0 0 1-.112.179L12.65 7.38a.12.12 0 0 0-.037.127l.514 1.53a.35.35 0 0 1-.24.45.36.36 0 0 1-.306-.056l-1.261-.917a.12.12 0 0 0-.14 0l-1.261.917a.356.356 0 0 1-.547-.176.35.35 0 0 1 .001-.218l.514-1.529a.12.12 0 0 0-.036-.127L8.627 6.376a.35.35 0 0 1 .227-.62h1.438a.12.12 0 0 0 .11-.079l.516-1.445v-.004A.35.35 0 0 1 11.25 4a.36.36 0 0 1 .332.228l.516 1.45a.12.12 0 0 0 .111.078h1.437c.072 0 .143.022.202.063" clip-rule="evenodd"></path></svg>
