<svg xmlns="http://www.w3.org/2000/svg" viewBox="0 0 16 16"><path fill-rule="evenodd" d="M7.194 1.22c-.833-.62-1.982.166-1.696 1.162.29 1.01.12 2.097-.467 2.972L3.857 7.105A5.06 5.06 0 0 0 3 9.922v.105C3 12.774 5.239 15 8 15s5-2.226 5-4.973V7.111c0-.844-.989-1.304-1.64-.765L10 7.473V5.552a4.47 4.47 0 0 0-1.8-3.58zM8 14c-1.25 0-2.5-.436-2.5-2.182 0-1.365 1.02-2.708 1.862-3.402.278-.23.638-.013.638.348v1.745a.5.5 0 0 0 .7.458l1.1-.48c.33-.144.704.098.683.458C10.411 12.205 10.028 14 8 14" clip-rule="evenodd"></path></svg>
