<svg xmlns="http://www.w3.org/2000/svg" viewBox="0 0 16 16"><path d="M6.32 3.5H3.75c-.69 0-1.25.56-1.25 1.25v6.5c0 .69.56 1.25 1.25 1.25h8.5c.69 0 1.25-.56 1.25-1.25v-4.5c0-.69-.56-1.25-1.25-1.25H9.08a1.75 1.75 0 0 1-1.27-.545L6.503 3.578A.25.25 0 0 0 6.32 3.5M3.75 2h2.57c.48 0 .939.197 1.27.545l1.308 1.377A.25.25 0 0 0 9.08 4h3.171A2.75 2.75 0 0 1 15 6.75v4.5A2.75 2.75 0 0 1 12.25 14h-8.5A2.75 2.75 0 0 1 1 11.25v-6.5A2.75 2.75 0 0 1 3.75 2"></path><path d="M13.806 6a1.25 1.25 0 0 1 1.186 1.645l-1.768 5.304C12.966 13.68 12.217 14 11.25 14h-7.5c-.435 0-.845-.1-1.21-.28a.75.75 0 0 1-.304-.175A2.75 2.75 0 0 1 .999 11.25v-6.5A2.75 2.75 0 0 1 3.75 2h2.57c.48 0 .939.197 1.27.545l1.308 1.377A.25.25 0 0 0 9.08 4h2.171a2.75 2.75 0 0 1 2.646 2zM6.321 3.5H3.75c-.69 0-1.25.56-1.25 1.25v6.5q0 .097.014.19l1.542-4.283A1.75 1.75 0 0 1 5.703 6h6.547a1.25 1.25 0 0 0-1-.5H9.08a1.75 1.75 0 0 1-1.27-.545L6.503 3.578A.25.25 0 0 0 6.32 3.5Zm-2.594 9h7.523c.214 0 .416-.054.592-.15L13.46 7.5H5.704a.25.25 0 0 0-.235.165L3.728 12.5Z"></path></svg>
