<svg xmlns="http://www.w3.org/2000/svg" viewBox="0 0 16 16"><path d="M14.5 1a.5.5 0 0 1 .5.5v13a.5.5 0 0 1-.5.5H14a.5.5 0 0 1-.5-.5v-9A.5.5 0 0 0 13 5H3a.5.5 0 0 0-.5.5v9a.5.5 0 0 1-.5.5h-.5a.5.5 0 0 1-.5-.5v-13a.5.5 0 0 1 .5-.5z"></path><path fill-rule="evenodd" d="M4 10.59v3.91a.5.5 0 0 0 .5.5H5a.5.5 0 0 0 .5-.5v-1h5v1a.5.5 0 0 0 .5.5h.5a.5.5 0 0 0 .5-.5v-3.91c0-.388-.09-.77-.264-1.118l-.545-1.09A2.5 2.5 0 0 0 8.955 7h-1.91A2.5 2.5 0 0 0 4.81 8.382l-.545 1.09A2.5 2.5 0 0 0 4 10.59m1.362-1.314.5-1A.5.5 0 0 1 6.309 8h3.382a.5.5 0 0 1 .447.276l.5 1a.5.5 0 0 1-.447.724H5.809a.5.5 0 0 1-.447-.724M5.75 12.5a.75.75 0 1 0 0-1.5.75.75 0 0 0 0 1.5m5.25-.75a.75.75 0 1 1-1.5 0 .75.75 0 0 1 1.5 0" clip-rule="evenodd"></path></svg>
