<svg xmlns="http://www.w3.org/2000/svg" viewBox="0 0 16 16"><path fill-rule="evenodd" d="M4 1.5a.5.5 0 0 1 .5-.5H5a.5.5 0 0 1 .5.5V2H6a.5.5 0 0 1 .5.5V4h3V2.5A.5.5 0 0 1 10 2h.5v-.5A.5.5 0 0 1 11 1h.5a.5.5 0 0 1 .5.5V2a.5.5 0 0 1-.5.5H11V4h1a.5.5 0 0 1 .5.5v2A.5.5 0 0 1 13 6h.5a.5.5 0 0 1 .5.5V8h.5a.5.5 0 0 1 .5.5v3a.5.5 0 0 1-.5.5H14a.5.5 0 0 1-.5-.5V10H13a.5.5 0 0 1-.5-.5v1a.5.5 0 0 1-.5.5H4a.5.5 0 0 1-.5-.5v-1a.5.5 0 0 1-.5.5h-.5v1.5a.5.5 0 0 1-.5.5h-.5a.5.5 0 0 1-.5-.5v-3a.5.5 0 0 1 .5-.5H2V6.5a.5.5 0 0 1 .5-.5H3a.5.5 0 0 1 .5.5v-2A.5.5 0 0 1 4 4h1V2.5h-.5A.5.5 0 0 1 4 2zm1 5a.5.5 0 0 1 .5-.5H6a.5.5 0 0 1 .5.5V7a.5.5 0 0 1-.5.5h-.5A.5.5 0 0 1 5 7zm5-.5a.5.5 0 0 0-.5.5V7a.5.5 0 0 0 .5.5h.5A.5.5 0 0 0 11 7v-.5a.5.5 0 0 0-.5-.5z" clip-rule="evenodd"></path><path d="M5.5 12a.5.5 0 0 0-.5.5v1h-.5a.5.5 0 0 0-.5.5v.5a.5.5 0 0 0 .5.5H6a.5.5 0 0 0 .5-.5v-2A.5.5 0 0 0 6 12zm4.5 0a.5.5 0 0 0-.5.5v2a.5.5 0 0 0 .5.5h1.5a.5.5 0 0 0 .5-.5V14a.5.5 0 0 0-.5-.5H11v-1a.5.5 0 0 0-.5-.5z"></path></svg>
