<svg xmlns="http://www.w3.org/2000/svg" viewBox="0 0 16 16"><path fill-rule="evenodd" d="M11.307 5.675a3 3 0 0 0 .68-1.643c.013-.137.013-.28.013-.565 0-.434 0-.651-.034-.832a2 2 0 0 0-1.601-1.601C10.184 1 9.967 1 9.533 1H6.467c-.434 0-.651 0-.832.034a2 2 0 0 0-1.601 1.601C4 2.816 4 3.033 4 3.467c0 .285 0 .428.013.565a3 3 0 0 0 .68 1.643c.075.09.16.177.307.325l2 2-1.916 1.916a7 7 0 0 0-.39.409 3 3 0 0 0-.681 1.643c-.013.137-.013.28-.013.565 0 .434 0 .651.034.832a2 2 0 0 0 1.601 1.601c.181.034.398.034.832.034h3.066c.434 0 .651 0 .832-.034a2 2 0 0 0 1.601-1.601c.034-.181.034-.398.034-.832 0-.285 0-.428-.013-.565a3 3 0 0 0-.68-1.643 6 6 0 0 0-.39-.409L9 8l2-2c.148-.148.232-.234.307-.325m-5.162-.652.153.153A7.7 7.7 0 0 1 8 5c.632 0 1.219.065 1.702.176l.153-.153c.221-.22.265-.266.298-.307a1.5 1.5 0 0 0 .34-.821c.005-.053.007-.115.007-.428 0-.226 0-.361-.003-.463l-.006-.099a.5.5 0 0 0-.396-.396c-.007 0-.035-.004-.1-.006a16 16 0 0 0-.462-.003H6.467c-.226 0-.361 0-.463.003l-.099.006a.5.5 0 0 0-.396.396c0 .007-.004.035-.006.1-.003.1-.003.236-.003.462 0 .313.001.375.006.428a1.5 1.5 0 0 0 .34.821c.034.041.077.086.299.307M8.5 9.621l1.355 1.356c.222.22.265.266.298.307a1.5 1.5 0 0 1 .34.821c.005.048.007.103.007.342-.45-.225-1.167-.387-2-.433zm-1 0v2.393c-.833.046-1.55.208-2 .433 0-.24.002-.294.006-.342a1.5 1.5 0 0 1 .34-.821 5 5 0 0 1 .299-.307z" clip-rule="evenodd"></path></svg>
