<svg xmlns="http://www.w3.org/2000/svg" viewBox="0 0 16 16"><path d="M10 6.5a1 1 0 1 1-2 0 1 1 0 0 1 2 0"></path><path fill-rule="evenodd" d="M1.272 3.365C1 3.9 1 4.6 1 6v4c0 1.4 0 2.1.272 2.635a2.5 2.5 0 0 0 1.093 1.092C2.9 14 3.6 14 5 14h6c1.4 0 2.1 0 2.635-.273a2.5 2.5 0 0 0 1.092-1.092C15 12.1 15 11.4 15 10V6c0-1.4 0-2.1-.273-2.635a2.5 2.5 0 0 0-1.092-1.093C13.1 2 12.4 2 11 2H5c-1.4 0-2.1 0-2.635.272a2.5 2.5 0 0 0-1.093 1.093M11 3.5H5c-.725 0-1.178.001-1.52.03-.324.026-.413.068-.434.079a1 1 0 0 0-.437.437c-.01.02-.053.11-.08.434-.028.342-.029.795-.029 1.52v3.572l2.297-1.969a1 1 0 0 1 1.358.052L9 10.501l2.146-2.147a.5.5 0 0 1 .708 0L13.5 10V6c0-.725-.001-1.178-.03-1.52-.026-.324-.069-.413-.079-.434a1 1 0 0 0-.437-.437c-.02-.01-.11-.053-.434-.08-.342-.028-.795-.029-1.52-.029" clip-rule="evenodd"></path></svg>
