<svg xmlns="http://www.w3.org/2000/svg" viewBox="0 0 16 16"><path d="M3.571 1a.624.624 0 0 0-.611.505l-.313 1.59-1.176.298a.626.626 0 0 0 0 1.214l1.176.299.313 1.59a.624.624 0 0 0 1.223 0l.313-1.59 1.176-.299a.626.626 0 0 0 0-1.214l-1.176-.299-.313-1.59A.624.624 0 0 0 3.57 1"></path><path fill-rule="evenodd" d="M11.29 1.604 1.604 11.29a2.06 2.06 0 0 0 0 2.915l.192.191a2.06 2.06 0 0 0 2.914 0l9.686-9.686a2.06 2.06 0 0 0 0-2.914l-.192-.192a2.06 2.06 0 0 0-2.914 0m2.013 1.285a.515.515 0 0 1 0 .728l-.843.843-.92-.92.843-.843a.515.515 0 0 1 .729 0zm-9.763 8.65-.843.844a.515.515 0 0 0 0 .729l.192.191a.515.515 0 0 0 .728 0l.843-.843z" clip-rule="evenodd"></path><path d="M12.974 10.342a.5.5 0 0 0-.948 0l-.421 1.263-1.263.42a.5.5 0 0 0 0 .95l1.263.42.42 1.263a.5.5 0 0 0 .95 0l.42-1.263 1.263-.42a.5.5 0 0 0 0-.95l-1.263-.42z"></path></svg>
