<svg xmlns="http://www.w3.org/2000/svg" viewBox="0 0 16 16"><path fill-rule="evenodd" d="M2 3.76c0-1.254.956-2.301 2.205-2.415 2.525-.23 5.065-.23 7.59 0A2.425 2.425 0 0 1 14 3.76V5h.5a.5.5 0 0 1 .5.5v2a.5.5 0 0 1-.5.5H14v4.2c0 .28 0 .42-.055.527a.5.5 0 0 1-.195.206V14.2c0 .28 0 .42-.055.527a.5.5 0 0 1-.218.218C13.37 15 13.23 15 12.95 15h-.9c-.28 0-.42 0-.527-.055a.5.5 0 0 1-.218-.218c-.055-.107-.055-.247-.055-.527V13h-6.5v1.2c0 .28 0 .42-.054.527a.5.5 0 0 1-.219.218C4.37 15 4.23 15 3.95 15h-.9c-.28 0-.42 0-.527-.055a.5.5 0 0 1-.219-.218c-.054-.107-.054-.247-.054-.527v-1.267a.5.5 0 0 1-.195-.206C2 12.62 2 12.48 2 12.2V8h-.5a.5.5 0 0 1-.5-.5v-2a.5.5 0 0 1 .5-.5H2zM4 6a1 1 0 0 1 1-1h6a1 1 0 0 1 1 1v1.5a.5.5 0 0 1-.5.5h-7a.5.5 0 0 1-.5-.5zm-.25 5.5a.75.75 0 1 0 0-1.5.75.75 0 0 0 0 1.5m9.25-.75a.75.75 0 1 1-1.5 0 .75.75 0 0 1 1.5 0M6.25 10a.25.25 0 0 0-.25.25v.5c0 .138.112.25.25.25h3.5a.25.25 0 0 0 .25-.25v-.5a.25.25 0 0 0-.25-.25z" clip-rule="evenodd"></path></svg>
