<svg xmlns="http://www.w3.org/2000/svg" viewBox="0 0 16 16"><path d="M5.121 1h5.758c.395 0 .736 0 1.017.023.297.024.592.078.875.222.424.216.768.56.984.984.144.283.198.578.222.875.023.28.023.622.023 1.017v.88a2.03 2.03 0 0 0-1.47.595l-.03.029V4.15c0-.432 0-.712-.018-.924-.017-.204-.045-.28-.064-.316a.75.75 0 0 0-.327-.328c-.038-.02-.113-.047-.317-.064a13 13 0 0 0-.924-.018h-5.7c-.432 0-.712 0-.924.018-.204.017-.28.045-.316.064a.75.75 0 0 0-.328.328c-.02.037-.047.112-.064.316-.017.212-.018.492-.018.924v7.7c0 .432 0 .712.018.924.017.204.045.28.064.317a.75.75 0 0 0 .328.327c.037.02.112.047.316.064.212.017.492.018.924.018h.11a4.6 4.6 0 0 0-.258 1.263q-.007.121.01.237c-.35 0-.654-.002-.908-.023a2.3 2.3 0 0 1-.875-.222 2.25 2.25 0 0 1-.984-.984 2.3 2.3 0 0 1-.222-.875C2 12.616 2 12.274 2 11.88V4.12c0-.395 0-.736.023-1.017a2.3 2.3 0 0 1 .222-.875 2.25 2.25 0 0 1 .984-.984 2.3 2.3 0 0 1 .875-.222C4.384 1 4.726 1 5.12 1m3.714 14h2.045c.395 0 .736 0 1.017-.023a2.3 2.3 0 0 0 .875-.222 2.25 2.25 0 0 0 .984-.984 2.3 2.3 0 0 0 .222-.875c.023-.28.023-.622.023-1.017V9.875l-1.5 1.5v.475c0 .432 0 .712-.018.924-.017.204-.045.28-.064.317a.75.75 0 0 1-.327.327c-.038.02-.113.047-.317.064-.212.017-.492.018-.924.018h-.474l-1.151 1.15q-.187.188-.391.35M12.5 9.961l1.5-1.5v-2.46a1.03 1.03 0 0 0-.764.302l-.736.736z"></path><path d="M10.978 7.147 9.625 8.5H5.25A.25.25 0 0 1 5 8.25v-1A.25.25 0 0 1 5.25 7h5.5a.25.25 0 0 1 .228.147M8.125 10l-1.5 1.5H5.25a.25.25 0 0 1-.25-.25v-1a.25.25 0 0 1 .25-.25zm-.086 1.5 1.5-1.5h1.211a.25.25 0 0 1 .25.25v1a.25.25 0 0 1-.25.25zm-1.699 2h2.621l-.444.444A3.63 3.63 0 0 1 6.176 15 .165.165 0 0 1 6 14.825a3.6 3.6 0 0 1 .34-1.325M5 4.25A.25.25 0 0 1 5.25 4h5.5a.25.25 0 0 1 .25.25v1a.25.25 0 0 1-.25.25h-5.5A.25.25 0 0 1 5 5.25z"></path><path fill-rule="evenodd" d="M14.697 6.303a1.033 1.033 0 0 1 0 1.46l-6.18 6.18A3.63 3.63 0 0 1 6.176 15 .165.165 0 0 1 6 14.825a3.63 3.63 0 0 1 1.056-2.342l6.18-6.18a1.033 1.033 0 0 1 1.461 0" clip-rule="evenodd"></path></svg>
