<svg xmlns="http://www.w3.org/2000/svg" viewBox="0 0 16 16"><path d="M6.003 1.286c-2.28.17-4.22.318-4.309.329a.86.86 0 0 0-.595.434L1 2.239l.022 9.191.143.286c.088.159.64.9 1.246 1.652 1.2 1.503 1.29 1.577 1.74 1.63.133.011 1.136-.031 2.205-.095 1.08-.063 2.821-.17 3.857-.222 4.442-.265 4.21-.244 4.475-.456.32-.254.286.17.308-5.42.011-4.734 0-5.051-.077-5.19-.077-.169-.231-.274-2.259-1.64-1.356-.921-1.455-.964-2.06-.974-.254-.011-2.326.127-4.597.285m5.125.604c.198.085 1.598 1.016 1.797 1.196.055.053.077.106.044.128-.055.052-8.729.55-8.982.508a1 1 0 0 1-.375-.138c-.397-.265-1.378-1.038-1.378-1.09 0-.149-.033-.149 3.825-.424a117 117 0 0 0 2.7-.19c1.598-.117 2.072-.117 2.37.01m2.755 2.393c.066.063.122.18.144.296.01.106.022 2.076.01 4.363-.01 3.918-.022 4.172-.099 4.278a.4.4 0 0 1-.209.169c-.187.074-9.268.572-9.456.519a.6.6 0 0 1-.264-.159l-.11-.106-.012-4.235c-.01-2.976 0-4.289.034-4.405a.5.5 0 0 1 .154-.233c.077-.053.617-.095 2.468-.201 1.3-.064 3.318-.18 4.464-.254 2.755-.16 2.744-.16 2.876-.032"></path><path d="M11.448 5.734c-.496.031-.937.074-.981.105a.46.46 0 0 0-.265.34c-.01.137.033.158.53.222l.209.02v1.875c0 1.112-.011 1.842-.044 1.821-.022-.021-.662-.974-1.433-2.096-.771-1.144-1.41-2.076-1.422-2.076-.01-.01-.507.01-1.113.053-.738.043-1.146.096-1.223.138-.132.063-.287.296-.287.445 0 .095.177.148.54.148h.199v5.379l-.32.095c-.231.064-.32.106-.364.201-.066.149-.066.276.011.276.023 0 .54-.022 1.136-.064 1.168-.063 1.3-.095 1.421-.328a.4.4 0 0 0 .077-.17c0-.01-.165-.063-.352-.106-.199-.042-.397-.095-.441-.095-.077-.021-.077-.159-.077-2.043V7.85l1.388 2.086c1.455 2.192 1.631 2.446 1.863 2.552.275.138.98.042 1.334-.18l.11-.064.022-5.982.242-.042c.287-.053.419-.18.419-.403 0-.137-.011-.148-.143-.137-.078 0-.551.031-1.036.053"></path></svg>
