<svg xmlns="http://www.w3.org/2000/svg" viewBox="0 0 16 16"><path d="M7.056 0a4.05 4.05 0 0 0-3.847 2.79A4 4 0 0 0 .543 4.725a4.03 4.03 0 0 0 .499 4.724 3.97 3.97 0 0 0 .341 3.268 4.04 4.04 0 0 0 4.346 1.94A4 4 0 0 0 8.73 16a4.05 4.05 0 0 0 3.847-2.79 3.98 3.98 0 0 0 2.66-1.935 4.02 4.02 0 0 0-.492-4.724v-.006a4 4 0 0 0-.342-3.272 4.04 4.04 0 0 0-4.34-1.935A4 4 0 0 0 7.056 0m0 1.04-.005.006c.704 0 1.381.244 1.923.693-.022.011-.065.038-.097.055L5.69 3.63a.52.52 0 0 0-.26.456v4.312l-1.371-.79V4.041A3 3 0 0 1 7.056 1.04m3.838 1.256a3 3 0 0 1 2.962 3.507c-.022-.016-.065-.038-.092-.054l-3.186-1.842a.53.53 0 0 0-.526 0L6.32 6.063V4.481l3.083-1.783a3 3 0 0 1 1.492-.402Zm-7.88 1.638V7.72c0 .19.098.358.26.455l3.728 2.151-1.377.797-3.077-1.778a3 3 0 0 1 .466-5.412Zm7.141.937 3.083 1.777a2.995 2.995 0 0 1 1.095 4.097l.005.005a3 3 0 0 1-1.56 1.311V8.274a.52.52 0 0 0-.26-.455L8.783 5.662zM7.89 6.177l1.572.91v1.815l-1.572.91-1.57-.91V7.087zm2.471 1.43 1.37.791v3.56a3 3 0 0 1-2.995 3.002v-.005a3 3 0 0 1-1.919-.694c.022-.01.07-.038.098-.054l3.186-1.837a.51.51 0 0 0 .26-.455zm-.894 2.33v1.582l-3.083 1.777a3.005 3.005 0 0 1-4.096-1.094h.005a2.98 2.98 0 0 1-.358-2.005c.022.016.065.038.093.054l3.185 1.843a.53.53 0 0 0 .526 0z"></path></svg>
