<svg xmlns="http://www.w3.org/2000/svg" viewBox="0 0 16 16"><path fill-rule="evenodd" d="M8.353 1.008c-.534-.067-1.022.298-1.092.816l-1.253 9.379a.95.95 0 0 0 .841 1.06l5.798.729c.534.067 1.022-.298 1.092-.816l1.253-9.379a.95.95 0 0 0-.841-1.06zm.594 5.452 1.894-1.936a.1.1 0 0 1 .159.021l1.328 2.36a.1.1 0 0 1-.015.12L10.419 8.96a.1.1 0 0 1-.159-.02L8.932 6.58a.1.1 0 0 1 .015-.12" clip-rule="evenodd"></path><path d="M4.725 12.182 5.783 3 1.56 4.796c-.448.191-.674.755-.505 1.26l2.792 8.312c.169.505.67.76 1.118.569L8 13.646l-2.527-.37c-.475-.069-.81-.559-.748-1.094"></path></svg>
