<svg xmlns="http://www.w3.org/2000/svg" viewBox="0 0 16 16"><path fill-rule="evenodd" d="M5 2a1 1 0 0 0-1-1H2a1 1 0 0 0-1 1v2a1 1 0 0 0 1 1h2a1 1 0 0 0 1-1zm1 2.25c.157.209.25.469.25.75v6A2.75 2.75 0 0 0 9 13.75h1v-1.5H9c-.69 0-1.25-.56-1.25-1.25V8.45c.375.192.8.3 1.25.3h1v-1.5H9c-.69 0-1.25-.56-1.25-1.25V5A2.75 2.75 0 0 0 6 2.437zM11 7a1 1 0 0 1 1-1h2a1 1 0 0 1 1 1v2a1 1 0 0 1-1 1h-2a1 1 0 0 1-1-1zm0 5a1 1 0 0 1 1-1h2a1 1 0 0 1 1 1v2a1 1 0 0 1-1 1h-2a1 1 0 0 1-1-1z" clip-rule="evenodd"></path></svg>
