<svg xmlns="http://www.w3.org/2000/svg" viewBox="0 0 16 16"><path d="M6.75 2.5a.25.25 0 0 0-.25.25V4H5V2.75C5 1.784 5.784 1 6.75 1h2.5c.966 0 1.75.784 1.75 1.75V4H9.5V2.75a.25.25 0 0 0-.25-.25z"></path><path fill-rule="evenodd" d="M1 7.25A2.25 2.25 0 0 1 3.25 5h9.5A2.25 2.25 0 0 1 15 7.25v5.5A2.25 2.25 0 0 1 12.75 15h-9.5A2.25 2.25 0 0 1 1 12.75zm6 .55c0-.28 0-.42.054-.527a.5.5 0 0 1 .219-.218C7.38 7 7.52 7 7.8 7h.4c.28 0 .42 0 .527.054a.5.5 0 0 1 .218.219C9 7.38 9 7.52 9 7.8V9h1.2c.28 0 .42 0 .527.055a.5.5 0 0 1 .218.218C11 9.38 11 9.52 11 9.8v.4c0 .28 0 .42-.055.527a.5.5 0 0 1-.218.218C10.62 11 10.48 11 10.2 11H9v1.2c0 .28 0 .42-.055.527a.5.5 0 0 1-.218.218C8.62 13 8.48 13 8.2 13h-.4c-.28 0-.42 0-.527-.055a.5.5 0 0 1-.218-.218C7 12.62 7 12.48 7 12.2V11H5.8c-.28 0-.42 0-.527-.055a.5.5 0 0 1-.218-.218C5 10.62 5 10.48 5 10.2v-.4c0-.28 0-.42.054-.527a.5.5 0 0 1 .219-.218C5.38 9 5.52 9 5.8 9H7z" clip-rule="evenodd"></path></svg>
