<svg xmlns="http://www.w3.org/2000/svg" viewBox="0 0 16 16"><path d="M2.35 13h-.6a.75.75 0 0 0 0 1.5h.233A7 7 0 0 1 2.35 13m4.732 1.5h7.168a.75.75 0 0 0 0-1.5H7.867l-.05.113c-.223.505-.472.97-.735 1.387"></path><path fill-rule="evenodd" d="M3.524 2.799c-.138.082-.39.333-.655 1.024-.228.596.069 1.273.717 1.966a6.8 6.8 0 0 0 1.279 1.055l.02.012.002.002L4.5 7.5l-.388.642-.002-.001-.003-.002-.01-.006-.032-.02-.112-.073A8.3 8.3 0 0 1 2.49 6.813C1.775 6.05.906 4.753 1.467 3.287c.318-.83.731-1.443 1.285-1.775.596-.357 1.211-.306 1.713-.103.475.193.883.532 1.19.839.314.314.57.64.732.86.393.53 1.033 1.943 1.385 3.614l.034.165a1.66 1.66 0 0 1 1.428.2c.506.323.86.882.982 1.486q.055.268.125.462c.391-.45.597-.881.784-1.274l.005-.01q.006-.01.011-.024c.097-.203.223-.468.39-.678a1.3 1.3 0 0 1 .94-.519c.72-.058 1.155.505 1.358.84.237.39.41.88.537 1.317a13 13 0 0 1 .37 1.741l.005.032v.01l.001.003-.743.1-.743.101-.001-.006-.004-.025-.014-.098a13 13 0 0 0-.313-1.442 4.5 4.5 0 0 0-.345-.9q-.04.077-.095.194l-.016.033c-.22.464-.55 1.156-1.243 1.857-.22.222-.528.433-.919.448-.41.017-.721-.187-.92-.398-.356-.38-.54-.971-.64-1.468-.05-.25-.194-.439-.322-.52a.2.2 0 0 0-.113-.043c-.011 0-.04 0-.095.04l-.202.15c.074 1.268-.072 2.628-.651 3.88-.413.889-.91 1.628-1.417 2.183-.491.537-1.049.963-1.6 1.122-.283.082-.631.113-.97-.033a1.26 1.26 0 0 1-.7-.784c-.197-.589-.068-1.368.232-2.225.34-.97 1.011-2.027 1.792-2.981.531-.65 1.13-1.273 1.745-1.813a11 11 0 0 0-.14-.813c-.327-1.548-.902-2.733-1.123-3.03a6 6 0 0 0-.587-.693c-.247-.246-.488-.426-.694-.51-.181-.073-.282-.057-.378 0m2.97 7.088q-.328.35-.632.72c-.722.883-1.277 1.785-1.537 2.528-.18.511-.233.844-.241 1.04.184-.096.448-.292.756-.629.394-.43.808-1.037 1.163-1.801.27-.583.424-1.213.49-1.858m-2.61 4.363h.003zm8.543-6.262.01.009z" clip-rule="evenodd"></path></svg>
