<svg xmlns="http://www.w3.org/2000/svg" viewBox="0 0 16 16"><path d="M5 1a1 1 0 0 0-1 1v1a1 1 0 0 0 1 1h6a1 1 0 0 0 1-1V2a1 1 0 0 0-1-1zM2 12a1 1 0 0 0-1 1v1a1 1 0 0 0 1 1h4a1 1 0 0 0 1-1v-1a1 1 0 0 0-1-1zm1.25-1h1.5V9.5a.75.75 0 0 1 .75-.75h1c.576 0 1.102-.217 1.5-.573.398.356.924.573 1.5.573h1a.75.75 0 0 1 .75.75V11h1.5V9.5a2.25 2.25 0 0 0-2.25-2.25h-1a.75.75 0 0 1-.75-.75V5h-1.5v1.5a.75.75 0 0 1-.75.75h-1A2.25 2.25 0 0 0 3.25 9.5zM14 12h-4a1 1 0 0 0-1 1v1a1 1 0 0 0 1 1h4a1 1 0 0 0 1-1v-1a1 1 0 0 0-1-1"></path></svg>
