<svg xmlns="http://www.w3.org/2000/svg" viewBox="0 0 16 16"><path d="M8.759 14.24a.76.76 0 0 1-1.52 0v-1.48a.76.76 0 1 1 1.52 0zm-3.587-3.413a.76.76 0 0 0-1.075 0L3.05 11.873a.76.76 0 1 0 1.075 1.075l1.047-1.046a.76.76 0 0 0 0-1.075m5.657 0a.76.76 0 0 0 0 1.074l1.046 1.047a.76.76 0 1 0 1.075-1.075l-1.047-1.046a.76.76 0 0 0-1.074 0m-.715-4.943a3 3 0 1 1-4.242 4.242 3 3 0 0 1 4.242-4.242M3.05 4.123a.76.76 0 1 1 1.075-1.075l1.047 1.047A.76.76 0 1 1 4.097 5.17zm8.825-1.074a.76.76 0 1 1 1.075 1.074L11.903 5.17a.76.76 0 1 1-1.075-1.075zm2.365 4.19a.76.76 0 1 1 0 1.52h-1.48a.76.76 0 0 1 0-1.52zM4 7.998a.76.76 0 0 0-.76-.76H1.76a.76.76 0 1 0 0 1.52h1.48c.42 0 .76-.34.76-.76M7.998 4c.42 0 .76-.34.76-.76V1.76a.76.76 0 0 0-1.52 0v1.48c0 .42.34.76.76.76"></path></svg>
