<svg xmlns="http://www.w3.org/2000/svg" viewBox="0 0 16 16"><path d="M6 2.5h4l-.881-1.322A.4.4 0 0 0 8.786 1H7.214a.4.4 0 0 0-.333.178z"></path><path fill-rule="evenodd" d="M2.528 5.944A5 5 0 0 0 2.14 7H1.5a.5.5 0 0 0-.5.5 1 1 0 0 0 1 1v2.66c0 .312.072.608.2.873V14.2c0 .28 0 .42.055.527a.5.5 0 0 0 .218.218C2.58 15 2.72 15 3 15h.4c.28 0 .42 0 .527-.055a.5.5 0 0 0 .219-.218c.054-.107.054-.247.054-.527v-1.017l.644.054c2.1.175 4.212.175 6.312 0l.644-.054V14.2c0 .28 0 .42.054.527a.5.5 0 0 0 .219.218c.107.055.247.055.527.055h.4c.28 0 .42 0 .527-.055a.5.5 0 0 0 .218-.218c.055-.107.055-.247.055-.527v-2.167c.128-.265.2-.561.2-.873V8.5a1 1 0 0 0 1-1 .5.5 0 0 0-.5-.5h-.641a5 5 0 0 0-.387-1.056l-.92-1.838A2 2 0 0 0 10.765 3H5.236a2 2 0 0 0-1.789 1.106zm.554.892L4.445 4.11A.2.2 0 0 1 4.624 4h6.753a.2.2 0 0 1 .178.11l1.363 2.726a.14.14 0 0 1-.098.2 24.6 24.6 0 0 1-9.64 0 .14.14 0 0 1-.098-.2M3.3 9a.3.3 0 0 0-.3.3v.9a.3.3 0 0 0 .3.3h.687a2.16 2.16 0 0 0 1.766-.89l.211-.3c.094-.132-.007-.31-.177-.31zm9.382 0c.175 0 .318.134.318.3v.9c0 .166-.143.3-.318.3h-.669a2.16 2.16 0 0 1-1.766-.89l-.211-.3c-.094-.132.007-.31.177-.31z" clip-rule="evenodd"></path></svg>
