<svg xmlns="http://www.w3.org/2000/svg" viewBox="0 0 16 16"><path fill-rule="evenodd" d="M1.327 2.638C1 3.28 1 4.12 1 5.8v4.4c0 1.68 0 2.52.327 3.162a3 3 0 0 0 1.311 1.311C3.28 15 4.12 15 5.8 15h4.4c1.68 0 2.52 0 3.162-.327a3 3 0 0 0 1.311-1.311C15 12.72 15 11.88 15 10.2V5.8c0-1.68 0-2.52-.327-3.162a3 3 0 0 0-1.311-1.311C12.72 1 11.88 1 10.2 1H5.8c-1.68 0-2.52 0-3.162.327a3 3 0 0 0-1.311 1.311m2.824 4.479a.75.75 0 0 0-.803 1.266L5.9 10l-2.55 1.617a.75.75 0 0 0 .802 1.266l3.55-2.25a.75.75 0 0 0 0-1.266z" clip-rule="evenodd"></path></svg>
