<svg xmlns="http://www.w3.org/2000/svg" viewBox="0 0 16 16"><path fill-rule="evenodd" d="m12.563 9.576.187.122.953.657a3 3 0 0 1 1.29 2.274l.007.196v.3c0 .986-.761 1.795-1.729 1.87l-.146.005h-5.25a1.875 1.875 0 0 1-1.87-1.729L6 13.125v-.3a3 3 0 0 1 1.139-2.353l.158-.117.953-.657a3.96 3.96 0 0 1 4.313-.122m-5-2 .187.122.922.635a5 5 0 0 0-.922.478l-1.4.922A3 3 0 0 0 5 12.24v.572q0 .096.008.189H2.875a1.875 1.875 0 0 1-1.87-1.729L1 11.125v-.3a3 3 0 0 1 1.139-2.353l.158-.117.953-.657a3.96 3.96 0 0 1 4.313-.122M10.5 3a2.5 2.5 0 1 1 0 5 2.5 2.5 0 0 1 0-5m-5-2a2.5 2.5 0 1 1 0 5 2.5 2.5 0 0 1 0-5" clip-rule="evenodd"></path></svg>
