<svg xmlns="http://www.w3.org/2000/svg" viewBox="0 0 16 16"><path fill-rule="evenodd" d="M8 1a7 7 0 1 1 0 14A7 7 0 0 1 8 1m-.588 12.469a.194.194 0 0 0 .213-.195v-2.172a.194.194 0 0 0-.213-.196 5 5 0 0 0-1.48.388.19.19 0 0 0-.102.238q.207.586.462 1.068.21.399.435.703a.2.2 0 0 0 .114.075q.281.06.57.09m1.176-2.562a.194.194 0 0 0-.213.195v2.172c0 .115.098.207.213.195q.29-.03.57-.091a.2.2 0 0 0 .115-.075q.224-.304.435-.703c.169-.32.325-.679.462-1.068a.19.19 0 0 0-.102-.238 5 5 0 0 0-1.48-.388m-.025-.757a.205.205 0 0 1-.188-.202V8.575c0-.11.09-.2.2-.2h1.962c.113 0 .204.094.198.207a11 11 0 0 1-.244 1.82.204.204 0 0 1-.277.14 5.9 5.9 0 0 0-1.651-.392M7.425 7.625a.2.2 0 0 0 .2-.2V6.052a.205.205 0 0 0-.188-.202 5.9 5.9 0 0 1-1.65-.391.204.204 0 0 0-.278.14 11 11 0 0 0-.244 1.82.197.197 0 0 0 .198.206zM8.563 5.85a.205.205 0 0 0-.188.202v1.373c0 .11.09.2.2.2h1.962a.197.197 0 0 0 .198-.207 11 11 0 0 0-.244-1.82.204.204 0 0 0-.277-.14c-.497.2-1.056.338-1.651.392m.025-.757a.194.194 0 0 1-.213-.195V2.727c0-.116.098-.208.213-.196q.29.03.57.091.072.016.115.075.224.305.435.703c.169.32.325.679.462 1.068a.19.19 0 0 1-.102.238c-.433.19-.935.329-1.48.387m-1.176 0a.194.194 0 0 0 .213-.195V2.727a.194.194 0 0 0-.213-.196 6 6 0 0 0-.57.091.2.2 0 0 0-.115.075 6 6 0 0 0-.435.703c-.169.32-.325.679-.462 1.068a.19.19 0 0 0 .102.238c.433.19.935.329 1.48.387m.025 5.057a.205.205 0 0 0 .188-.202V8.575a.2.2 0 0 0-.2-.2H5.463a.197.197 0 0 0-.198.207c.033.64.118 1.25.244 1.82.027.122.16.186.277.14a5.9 5.9 0 0 1 1.651-.392m3.654 1.806c-.099-.095-.258-.048-.307.08a9 9 0 0 1-.423.933q.559-.267 1.039-.645a2 2 0 0 0-.309-.368m1.032-.315c-.083.093-.23.082-.31-.012a3.5 3.5 0 0 0-.584-.532.21.21 0 0 1-.08-.22c.18-.713.3-1.49.338-2.308a.203.203 0 0 1 .201-.194h1.585c.116 0 .208.098.196.213a5.5 5.5 0 0 1-1.346 3.053m-7.352-.544a.21.21 0 0 0 .08-.22c-.18-.713-.3-1.49-.338-2.308a.203.203 0 0 0-.201-.194H2.726a.194.194 0 0 0-.195.213 5.5 5.5 0 0 0 1.346 3.053c.083.093.23.082.31-.012q.254-.292.584-.532m-.17 1.227a5.5 5.5 0 0 0 1.038.645 9 9 0 0 1-.423-.933c-.049-.128-.208-.175-.307-.08a2 2 0 0 0-.309.368M5.638 3.03q-.23.432-.423.933c-.049.128-.208.175-.307.08a2 2 0 0 1-.309-.368q.481-.378 1.039-.645M4.85 5.122a.21.21 0 0 0-.08-.22 3.5 3.5 0 0 1-.583-.531c-.082-.094-.228-.105-.31-.012A5.5 5.5 0 0 0 2.53 7.412a.194.194 0 0 0 .196.213h1.585a.203.203 0 0 0 .201-.194c.039-.817.158-1.595.338-2.309m6.837 2.503a.203.203 0 0 1-.201-.194 11.7 11.7 0 0 0-.338-2.309.21.21 0 0 1 .08-.22c.219-.159.416-.337.583-.531.082-.094.228-.105.31-.012a5.5 5.5 0 0 1 1.347 3.053.194.194 0 0 1-.195.213zM11.4 3.676q-.121.186-.309.368c-.099.095-.258.048-.307-.08a9 9 0 0 0-.423-.933q.559.267 1.039.645" clip-rule="evenodd"></path></svg>
