<svg xmlns="http://www.w3.org/2000/svg" viewBox="0 0 16 16"><path fill-rule="evenodd" d="M5.2 3.861a.19.19 0 0 1 .07.212 3.03 3.03 0 0 1-1.044 1.432.19.19 0 0 1-.224 0L2.51 4.41c-.667-.49-1.61.055-1.5.89A4.06 4.06 0 0 0 2.7 8.097a4.02 4.02 0 0 0 2.499.729 2.02 2.02 0 0 1 1.516.594l5.213 5.225a1.203 1.203 0 0 0 1.687.018l1.015-.977a1.21 1.21 0 0 0 .018-1.726L9.454 6.755a2.03 2.03 0 0 1-.593-1.511 4.08 4.08 0 0 0-1.59-3.414 4.04 4.04 0 0 0-3.173-.766c-.826.148-1.058 1.214-.39 1.703zm7.55 9.639a.75.75 0 1 0 0-1.5.75.75 0 0 0 0 1.5" clip-rule="evenodd"></path></svg>
