<svg xmlns="http://www.w3.org/2000/svg" viewBox="0 0 16 16"><path d="M5.07 1.495 5.4 3.8a1 1 0 0 0 .794.839l1.316.263a.61.61 0 0 1 0 1.196l-1.316.263a1 1 0 0 0-.794.84l-.33 2.304a.576.576 0 0 1-1.14 0L3.6 7.2a1 1 0 0 0-.794-.839l-1.291-.258a.64.64 0 0 1 .015-1.258l1.255-.22a1 1 0 0 0 .818-.844l.326-2.286a.576.576 0 0 1 1.142 0M14.63 4.37a1.263 1.263 0 0 1 0 1.786l-.603.603a.5.5 0 0 1-.707 0L12.24 5.68a.5.5 0 0 1 0-.707l.604-.603a1.263 1.263 0 0 1 1.786 0m-2.37 3.45a.5.5 0 0 1 0 .707l-5.183 5.182A4.43 4.43 0 0 1 4.214 15 .202.202 0 0 1 4 14.787a4.43 4.43 0 0 1 1.29-2.863l5.183-5.182a.5.5 0 0 1 .707 0z"></path></svg>
