<svg xmlns="http://www.w3.org/2000/svg" viewBox="0 0 16 16"><g clip-path="url(#clip0_6363_3716)"><path d="M8.004 1q.595.001 1.163.097v4.076l2.889-2.882a7 7 0 0 1 1.65 1.646l-2.889 2.882h4.086Q15 7.384 15 7.977v.01q-.001.593-.097 1.16h-4.087l2.89 2.88q-.342.479-.755.892h-.001a7 7 0 0 1-.893.754l-2.89-2.881v4.075a7 7 0 0 1-1.162.097h-.01q-.594-.001-1.161-.097v-4.075l-2.89 2.881a7 7 0 0 1-1.65-1.646l2.89-2.88H1.098A7 7 0 0 1 1 7.984v-.02c0-.103.007-.228.017-.358l.003-.039c.029-.365.078-.75.078-.75h4.086l-2.89-2.881q.341-.478.756-.89v-.002q.415-.413.895-.754l2.889 2.882V1.097A7 7 0 0 1 7.996 1zm0 5.237h-.007a4.2 4.2 0 0 0-1.478.268 4.2 4.2 0 0 0-.27 1.474v.006c.001.52.097 1.016.27 1.474.46.173.958.268 1.478.268h.007A4.2 4.2 0 0 0 9.48 9.46c.174-.459.27-.955.27-1.474V7.98c0-.519-.096-1.016-.27-1.474a4.2 4.2 0 0 0-1.477-.268"></path></g><defs><clipPath id="clip0_6363_3716"><path fill="#fff" d="M1 1h14v14H1z"></path></clipPath></defs></svg>
