<svg xmlns="http://www.w3.org/2000/svg" viewBox="0 0 16 16"><path d="M1 5.067C1 2.821 2.79 1 5 1c1.195 0 2.267.533 3 1.377A3.96 3.96 0 0 1 11 1c2.21 0 4 1.821 4 4.067 0 .76-.156 1.53-.422 2.292h-2.867c-.31 0-.608.127-.824.352L9.172 9.498l-2.177-4.41a1.143 1.143 0 0 0-2.022-.066L3.627 7.359H1.5v.216C1.187 6.743 1 5.899 1 5.067"></path><path d="M1.987 8.675c1.172 2.312 4.157 4.831 5.673 6.194a.506.506 0 0 0 .68 0c1.516-1.363 4.501-3.882 5.673-6.194h-2.238L9.957 10.57c-.552.575-1.5.426-1.853-.291l-2.148-4.35-1.25 2.17a1.15 1.15 0 0 1-.993.577z"></path></svg>
