<svg xmlns="http://www.w3.org/2000/svg" viewBox="0 0 16 16"><path fill-rule="evenodd" d="M2 1.799V8.1c0 1.855 1.284 5.552 3.317 6.382a7.22 7.22 0 0 0 5.366 0C12.716 13.653 14 9.956 14 8.1V1.799c0-.62-.828-1.003-1.479-.684-2.783 1.363-6.26 1.363-9.042 0C2.828.796 2 1.179 2 1.799m2.01 7.793C4.324 11.107 5.374 13 8 13s3.675-1.893 3.99-3.408c.092-.437-.511-.72-1.007-.534-.838.313-1.938.613-2.983.613s-2.145-.3-2.983-.613c-.496-.186-1.099.097-1.008.534M5.272 7C6.68 7 6.94 5.636 6.989 5.16c.008-.073-.068-.123-.136-.094-.313.132-1.075.42-1.853.434-.594.01-1.196-.214-1.613-.369l-.212-.077c-.075-.027-.139.044-.108.117C3.329 5.79 4.037 7 5.273 7m7.716-1.84C12.941 5.637 12.68 7 11.273 7c-1.237 0-1.944-1.21-2.206-1.83-.03-.072.033-.143.108-.116l.212.077c.417.155 1.02.38 1.613.369.778-.014 1.54-.302 1.853-.434.068-.03.144.02.136.095" clip-rule="evenodd"></path></svg>
