<svg xmlns="http://www.w3.org/2000/svg" viewBox="0 0 16 16"><path fill-rule="evenodd" d="M10.491 3.114a.6.6 0 0 0-.079-.323l-.006-.01a.5.5 0 0 0-.206-.199.74.74 0 0 0-.361-.082.57.57 0 0 0-.342.094c-.095.069-.235.218-.4.511q-.28.511-.598 1.003h-.001q-.314.489-.684.987v-.001q-.362.495-.792 1.02l-.002.003q-.426.515-.927 1.1a.75.75 0 0 1-.57.262H4.446c-.338 0-.636.1-.916.313-.293.227-.544.544-.742.974a3.4 3.4 0 0 0-.288 1.433c0 .522.106.98.308 1.39l.082.151q.256.44.616.728l.123.092.004.002c.315.225.654.333 1.036.334h1.926l.086.004q.13.015.247.074.491.244 1.105.382l.006.001q.604.142 1.303.143h.81q.53 0 .961-.033.431-.035.668-.092c.307-.07.5-.187.625-.318l.004-.004a.52.52 0 0 0 .16-.389.4.4 0 0 0-.021-.12.75.75 0 0 1 .266-.857c.237-.173.315-.348.315-.573a.7.7 0 0 0-.058-.3.75.75 0 0 1 .16-.855.6.6 0 0 0 .135-.205.8.8 0 0 0 .024-.52.4.4 0 0 0-.046-.129.75.75 0 0 1 .037-.826c.065-.09.118-.22.118-.437a.64.64 0 0 0-.1-.359l-.008-.012a.74.74 0 0 0-.29-.275l-.014-.008a.86.86 0 0 0-.438-.104h-2.186c-.15 0-.354-.027-.55-.15a.9.9 0 0 1-.403-.762l-.001-.023c.008-.282.102-.57.214-.83q.153-.362.354-.79.176-.37.3-.771l.004-.009.049-.17q.06-.251.06-.465m1.5 0c0 .365-.064.73-.181 1.091v.001a7.5 7.5 0 0 1-.375.964q-.102.218-.19.414h1.405c.413 0 .808.093 1.166.294.357.194.648.467.859.814.218.35.325.739.325 1.15 0 .323-.058.635-.183.925l.03.108.008.027q.068.273.069.555 0 .44-.161.85l-.002.005q-.073.179-.176.34.045.226.045.462c0 .57-.202 1.062-.566 1.456q.004.047.005.094c0 .546-.2 1.033-.577 1.426h.001c-.367.387-.843.626-1.378.748v-.001q-.387.088-.886.125A14 14 0 0 1 10.15 15h-.81q-.855 0-1.642-.18-.672-.153-1.265-.425H4.669a3.23 3.23 0 0 1-1.903-.61 4.1 4.1 0 0 1-1.296-1.517l-.003-.006A4.6 4.6 0 0 1 1 10.199c0-.737.137-1.427.425-2.058v-.002c.287-.622.68-1.143 1.193-1.537l.003-.003a2.95 2.95 0 0 1 1.825-.62h.729q.367-.432.688-.818.408-.5.744-.958l.004-.005q.343-.46.627-.902l.001-.003q.291-.45.545-.915l.005-.009c.225-.4.497-.752.835-.995l.006-.004c.36-.253.773-.37 1.209-.37.38 0 .745.083 1.079.265.333.18.6.44.789.77.194.331.284.698.284 1.08" clip-rule="evenodd"></path></svg>
