<svg xmlns="http://www.w3.org/2000/svg" viewBox="0 0 16 16"><path d="M6 6.998s-.6-.6 1-3C8.549 1.675 12.72 1.038 14.8 1c.11-.002.2.088.206.198q.01.186.028.393c.081.981.195 2.358-1.034 4.407-1.363 2.023-3.898 2.961-4.026 3.009l-.005.002.031-.01c2.213-.739 3.066.156 3.561.676.177.185.308.323.44.323C11.362 11.55 8.467 12.446 6 11c.31-.819 3.5-5 6-7.002-3.5 1.002-6 4.5-7 6C3.348 7.972 4.458 4.035 5.5 3c.073-.072.176.009.143.106C5.285 4.159 5 7 6 6.998m-5 8h1l3.5-3-.368-.184A4.4 4.4 0 0 1 4 10.998z"></path></svg>
